<svg width="193" height="163" viewBox="0 0 193 163" fill="none" xmlns="http://www.w3.org/2000/svg">
<path opacity="0.1" d="M191.62 112.384C186.376 86.0513 155.653 65.0051 149.66 37.5643C138.769 2.65206 102.872 -2.86763 79.5454 12.2947C42.5842 36.3197 82.0142 42.2816 9.54514 99.1233C-8.3491 113.159 -2.64719 175.114 53.6471 160.895C83.9421 153.243 93.1517 152.17 106.779 150.91C141.126 147.734 200.422 156.588 191.62 112.384Z" fill="#367CFF"/>
<path d="M166.22 60.5859H27.9326V152.493H166.22V60.5859Z" fill="#DEE8F5"/>
<path opacity="0.55" d="M167.766 59.1104H24.9153V82.4678H167.766V59.1104Z" fill="#C1D8ED"/>
<path d="M192.036 158.94H2.11597V168.47H192.036V158.94Z" fill="#F3F5FD"/>
<path d="M185.374 149.41H8.77905V158.94H185.374V149.41Z" fill="#F3F5FD"/>
<path d="M185.374 156.391H8.77905V158.94H185.374V156.391Z" fill="#DEE8F5"/>
<path d="M37.508 67.75H22.2256V145.122H37.508V67.75Z" fill="#F3F5FD"/>
<path d="M76.0595 67.75H60.7771V145.122H76.0595V67.75Z" fill="#F3F5FD"/>
<path d="M171.927 67.75H156.645V145.122H171.927V67.75Z" fill="#F3F5FD"/>
<path d="M17.6233 60.5859H42.1101V69.3656C42.1101 69.6599 41.9933 69.942 41.7852 70.1501C41.5772 70.3581 41.295 70.475 41.0008 70.475H18.733C18.4388 70.475 18.1566 70.3581 17.9486 70.1501C17.7405 69.942 17.6236 69.6599 17.6236 69.3656L17.6233 60.5859Z" fill="#C1D8ED"/>
<path d="M56.1748 60.5859H80.6617V69.3656C80.6617 69.5113 80.6329 69.6556 80.5772 69.7902C80.5214 69.9248 80.4397 70.0471 80.3367 70.1501C80.2337 70.2531 80.1114 70.3348 79.9768 70.3906C79.8422 70.4463 79.698 70.475 79.5523 70.475H57.2845C56.9903 70.475 56.7081 70.3581 56.5001 70.1501C56.292 69.942 56.1751 69.6599 56.1751 69.3656L56.1748 60.5859Z" fill="#C1D8ED"/>
<path d="M152.042 60.5859H176.529V69.3656C176.529 69.6599 176.412 69.942 176.204 70.1501C175.996 70.3581 175.714 70.475 175.42 70.475H153.152C152.858 70.475 152.576 70.3581 152.368 70.1501C152.16 69.942 152.043 69.6599 152.043 69.3656L152.042 60.5859Z" fill="#C1D8ED"/>
<path d="M18.7332 142.474H41.001C41.1467 142.474 41.291 142.502 41.4255 142.558C41.5601 142.614 41.6824 142.696 41.7855 142.799C41.8885 142.902 41.9702 143.024 42.0259 143.158C42.0817 143.293 42.1104 143.437 42.1104 143.583V149.41H17.6235V143.583C17.6235 143.438 17.6522 143.293 17.7079 143.159C17.7637 143.024 17.8454 142.902 17.9485 142.799C18.0515 142.696 18.1739 142.614 18.3085 142.558C18.4432 142.502 18.5875 142.474 18.7332 142.474Z" fill="#C1D8ED"/>
<path d="M57.2845 142.474H79.5523C79.698 142.474 79.8422 142.502 79.9768 142.558C80.1114 142.614 80.2337 142.696 80.3367 142.799C80.4397 142.902 80.5214 143.024 80.5772 143.158C80.6329 143.293 80.6617 143.437 80.6617 143.583V149.41H56.1748V143.583C56.1748 143.438 56.2034 143.293 56.2592 143.159C56.3149 143.024 56.3967 142.902 56.4997 142.799C56.6028 142.696 56.7251 142.614 56.8598 142.558C56.9944 142.502 57.1388 142.474 57.2845 142.474Z" fill="#C1D8ED"/>
<path d="M153.152 142.474H175.42C175.566 142.474 175.71 142.502 175.845 142.558C175.979 142.614 176.101 142.696 176.204 142.799C176.307 142.902 176.389 143.024 176.445 143.158C176.501 143.293 176.529 143.437 176.529 143.583V149.41H152.042V143.583C152.042 143.438 152.071 143.293 152.127 143.159C152.183 143.024 152.264 142.902 152.367 142.799C152.47 142.696 152.593 142.614 152.727 142.558C152.862 142.502 153.006 142.474 153.152 142.474Z" fill="#C1D8ED"/>
<path d="M27.9248 74.7203C27.9248 74.2955 27.5804 73.9512 27.1556 73.9512C26.7308 73.9512 26.3865 74.2955 26.3865 74.7203V138.151C26.3865 138.576 26.7308 138.92 27.1556 138.92C27.5804 138.92 27.9248 138.576 27.9248 138.151V74.7203Z" fill="#C1D8ED"/>
<path d="M33.3469 74.7203C33.3469 74.2955 33.0025 73.9512 32.5777 73.9512C32.153 73.9512 31.8086 74.2955 31.8086 74.7203V138.151C31.8086 138.576 32.153 138.92 32.5777 138.92C33.0025 138.92 33.3469 138.576 33.3469 138.151V74.7203Z" fill="#C1D8ED"/>
<path d="M66.4768 74.7203C66.4768 74.2955 66.1324 73.9512 65.7076 73.9512C65.2828 73.9512 64.9385 74.2955 64.9385 74.7203V138.151C64.9385 138.576 65.2828 138.92 65.7076 138.92C66.1324 138.92 66.4768 138.576 66.4768 138.151V74.7203Z" fill="#C1D8ED"/>
<path d="M71.8984 74.7203C71.8984 74.2955 71.554 73.9512 71.1292 73.9512C70.7045 73.9512 70.3601 74.2955 70.3601 74.7203V138.151C70.3601 138.576 70.7045 138.92 71.1292 138.92C71.554 138.92 71.8984 138.576 71.8984 138.151V74.7203Z" fill="#C1D8ED"/>
<path d="M134.566 67.75H119.283V145.122H134.566V67.75Z" fill="#F3F5FD"/>
<path d="M114.681 60.5859H139.168V69.3656C139.168 69.6599 139.051 69.942 138.843 70.1501C138.635 70.3581 138.352 70.475 138.058 70.475H115.79C115.496 70.475 115.214 70.3581 115.006 70.1501C114.798 69.942 114.681 69.6599 114.681 69.3656L114.681 60.5859Z" fill="#C1D8ED"/>
<path d="M115.79 142.474H138.058C138.203 142.474 138.348 142.502 138.482 142.558C138.617 142.614 138.739 142.696 138.842 142.799C138.945 142.902 139.027 143.024 139.083 143.158C139.138 143.293 139.167 143.437 139.167 143.583V149.41H114.681V143.583C114.681 143.438 114.709 143.293 114.765 143.159C114.821 143.024 114.903 142.902 115.006 142.799C115.109 142.696 115.231 142.614 115.366 142.558C115.5 142.502 115.645 142.474 115.79 142.474Z" fill="#C1D8ED"/>
<path d="M124.982 74.7203C124.982 74.2955 124.638 73.9512 124.213 73.9512C123.788 73.9512 123.444 74.2955 123.444 74.7203V138.151C123.444 138.576 123.788 138.92 124.213 138.92C124.638 138.92 124.982 138.576 124.982 138.151V74.7203Z" fill="#C1D8ED"/>
<path d="M130.404 74.7203C130.404 74.2955 130.06 73.9512 129.635 73.9512C129.21 73.9512 128.866 74.2955 128.866 74.7203V138.151C128.866 138.576 129.21 138.92 129.635 138.92C130.06 138.92 130.404 138.576 130.404 138.151V74.7203Z" fill="#C1D8ED"/>
<path d="M162.344 74.7203C162.344 74.2955 162 73.9512 161.575 73.9512C161.15 73.9512 160.806 74.2955 160.806 74.7203V138.151C160.806 138.576 161.15 138.92 161.575 138.92C162 138.92 162.344 138.576 162.344 138.151V74.7203Z" fill="#C1D8ED"/>
<path d="M167.766 74.7203C167.766 74.2955 167.422 73.9512 166.997 73.9512C166.572 73.9512 166.228 74.2955 166.228 74.7203V138.151C166.228 138.576 166.572 138.92 166.997 138.92C167.422 138.92 167.766 138.576 167.766 138.151V74.7203Z" fill="#C1D8ED"/>
<path d="M183.21 57.141V62.7689C183.21 63.0716 183.089 63.3618 182.875 63.5758C182.661 63.7898 182.371 63.91 182.068 63.91H11.729C11.4264 63.9099 11.1362 63.7897 10.9222 63.5757C10.7083 63.3617 10.588 63.0715 10.5879 62.7689V57.3828C10.5879 57.1171 10.6528 56.8555 10.7771 56.6206C10.9013 56.3858 11.0811 56.1849 11.3008 56.0354L96.1583 -1.71768C96.4288 -1.90163 96.7483 -2 97.0753 -2C97.4024 -2 97.7219 -1.90163 97.9923 -1.71768L182.498 55.7935C182.717 55.9431 182.897 56.1441 183.021 56.3789C183.145 56.6137 183.21 56.8753 183.21 57.141Z" fill="#DEE8F5"/>
<path d="M160.467 54.4125H33.6856C33.5918 54.4126 33.5004 54.3826 33.4249 54.3269C33.3494 54.2713 33.2937 54.1928 33.266 54.1032C33.2384 54.0135 33.2402 53.9174 33.2713 53.8288C33.3023 53.7403 33.361 53.664 33.4385 53.6113L96.8282 10.4684C96.901 10.419 96.9869 10.3926 97.0749 10.3926C97.1629 10.3926 97.2488 10.419 97.3216 10.4684L160.713 53.6113C160.791 53.664 160.849 53.7402 160.881 53.8287C160.912 53.9172 160.913 54.0134 160.886 54.103C160.858 54.1926 160.803 54.2711 160.727 54.3268C160.652 54.3825 160.56 54.4125 160.467 54.4125Z" fill="#F3F5FD"/>
</svg>
