<svg width="30" height="30" viewBox="0 0 30 30" fill="none" xmlns="http://www.w3.org/2000/svg">
<g clip-path="url(#clip0_1026_23225)">
<path d="M29.5482 18.6289C27.5447 26.6646 19.4054 31.5546 11.3686 29.5512C3.33565 27.5478 -1.55481 19.4084 0.449098 11.3731C2.4516 3.33638 10.5905 -1.55457 18.6249 0.448873C26.6611 2.45231 31.5512 10.5926 29.5477 18.6289H29.5482Z" fill="#F7931A"/>
<path d="M21.6121 12.863C21.9102 10.867 20.3906 9.79406 18.3126 9.07829L18.9866 6.37454L17.3404 5.96438L16.6841 8.59688C16.252 8.48906 15.8076 8.38736 15.366 8.28656L16.027 5.63672L14.3821 5.22656L13.7076 7.92938C13.3495 7.84781 12.9979 7.7672 12.6566 7.68236L12.6585 7.6739L10.3888 7.1072L9.95101 8.86499C9.95101 8.86499 11.1721 9.14486 11.1463 9.1622C11.8129 9.32861 11.9338 9.7697 11.9132 10.1194L11.1454 13.1995C11.1913 13.2112 11.2508 13.2281 11.3165 13.2544L11.1431 13.2112L10.0663 17.5261C9.98476 17.7286 9.77806 18.0323 9.3121 17.917C9.32851 17.941 8.11585 17.6185 8.11585 17.6185L7.29883 19.5028L9.44101 20.0367C9.83947 20.1366 10.2299 20.2411 10.6138 20.3395L9.93274 23.0747L11.5766 23.4849L12.2516 20.7792C12.7002 20.9011 13.1362 21.0136 13.5627 21.1195L12.8906 23.8125L14.5363 24.2227L15.2174 21.4931C18.0238 22.0242 20.1346 21.81 21.022 19.2722C21.7377 17.2285 20.9868 16.0495 19.5102 15.2803C20.5856 15.0314 21.3956 14.3241 21.6116 12.863H21.6121ZM17.8513 18.136C17.3423 20.1797 13.9016 19.0753 12.7856 18.7978L13.6893 15.1749C14.8049 15.4533 18.382 16.0045 17.8518 18.136H17.8513ZM18.3599 12.8335C17.8958 14.6925 15.0318 13.748 14.1023 13.5164L14.9216 10.2305C15.8512 10.462 18.8437 10.8942 18.3599 12.8335Z" fill="white"/>
</g>
<defs>
<clipPath id="clip0_1026_23225">
<rect width="30" height="30" fill="white"/>
</clipPath>
</defs>
</svg>
