<svg width="131" height="109" viewBox="0 0 131 109" fill="none" xmlns="http://www.w3.org/2000/svg">
<circle cx="71.7738" cy="54.5188" r="46.9899" fill="#F7F9FC"/>
<mask id="path-2-inside-1_980_20377" fill="white">
<path fill-rule="evenodd" clip-rule="evenodd" d="M95.9351 92.6793H38.7716V92.5939C29.6573 91.7073 22.5337 84.0239 22.5337 74.6768C22.5337 64.7343 30.5937 56.6744 40.5362 56.6744C40.6544 56.6744 40.7724 56.6755 40.8901 56.6778V56.6744C40.8901 41.4682 53.2171 29.1411 68.4233 29.1411C78.5823 29.1411 87.4563 34.6432 92.2279 42.83C93.4439 42.6487 94.6884 42.5548 95.9549 42.5548C109.796 42.5548 121.017 53.7756 121.017 67.6171C121.017 80.5739 111.185 91.2343 98.5745 92.5441V92.6793H95.9746C95.968 92.6793 95.9615 92.6794 95.9549 92.6794C95.9483 92.6794 95.9417 92.6793 95.9351 92.6793Z"/>
</mask>
<path fill-rule="evenodd" clip-rule="evenodd" d="M95.9351 92.6793H38.7716V92.5939C29.6573 91.7073 22.5337 84.0239 22.5337 74.6768C22.5337 64.7343 30.5937 56.6744 40.5362 56.6744C40.6544 56.6744 40.7724 56.6755 40.8901 56.6778V56.6744C40.8901 41.4682 53.2171 29.1411 68.4233 29.1411C78.5823 29.1411 87.4563 34.6432 92.2279 42.83C93.4439 42.6487 94.6884 42.5548 95.9549 42.5548C109.796 42.5548 121.017 53.7756 121.017 67.6171C121.017 80.5739 111.185 91.2343 98.5745 92.5441V92.6793H95.9746C95.968 92.6793 95.9615 92.6794 95.9549 92.6794C95.9483 92.6794 95.9417 92.6793 95.9351 92.6793Z" fill="#F0F2F5"/>
<path d="M38.7716 92.6793H37.7505V93.7004H38.7716V92.6793ZM38.7716 92.5939H39.7927V91.6674L38.8705 91.5777L38.7716 92.5939ZM40.8901 56.6778L40.8704 57.6987L41.9111 57.7187V56.6778H40.8901ZM92.2279 42.83L91.3457 43.3442L91.6941 43.942L92.3785 43.8399L92.2279 42.83ZM98.5745 92.5441L98.469 91.5285L97.5534 91.6236V92.5441H98.5745ZM98.5745 92.6793V93.7004H99.5956V92.6793H98.5745ZM95.9351 91.6583H38.7716V93.7004H95.9351V91.6583ZM39.7927 92.6793V92.5939H37.7505V92.6793H39.7927ZM38.8705 91.5777C30.2742 90.7414 23.5548 83.4932 23.5548 74.6768H21.5126C21.5126 84.5547 29.0404 92.6731 38.6727 93.6102L38.8705 91.5777ZM23.5548 74.6768C23.5548 65.2983 31.1576 57.6954 40.5362 57.6954V55.6533C30.0298 55.6533 21.5126 64.1704 21.5126 74.6768H23.5548ZM40.5362 57.6954C40.6478 57.6954 40.7592 57.6965 40.8704 57.6987L40.9097 55.6569C40.7855 55.6545 40.661 55.6533 40.5362 55.6533V57.6954ZM41.9111 56.6778V56.6744H39.869V56.6778H41.9111ZM41.9111 56.6744C41.9111 42.0321 53.781 30.1622 68.4233 30.1622V28.1201C52.6532 28.1201 39.869 40.9043 39.869 56.6744H41.9111ZM68.4233 30.1622C78.2043 30.1622 86.7495 35.4583 91.3457 43.3442L93.1101 42.3159C88.1631 33.8281 78.9604 28.1201 68.4233 28.1201V30.1622ZM92.3785 43.8399C93.5448 43.6661 94.739 43.5759 95.9549 43.5759V41.5337C94.6379 41.5337 93.343 41.6314 92.0773 41.8201L92.3785 43.8399ZM95.9549 43.5759C109.232 43.5759 119.996 54.3395 119.996 67.6171H122.038C122.038 53.2116 110.36 41.5337 95.9549 41.5337V43.5759ZM119.996 67.6171C119.996 80.0454 110.565 90.2722 98.469 91.5285L98.68 93.5597C111.805 92.1965 122.038 81.1025 122.038 67.6171H119.996ZM97.5534 92.5441V92.6793H99.5956V92.5441H97.5534ZM98.5745 91.6583H95.9746V93.7004H98.5745V91.6583ZM95.9746 91.6583C95.971 91.6583 95.9674 91.6583 95.9642 91.6583C95.9608 91.6583 95.9578 91.6583 95.9549 91.6583V93.7004C95.9585 93.7004 95.9621 93.7004 95.9653 93.7004C95.9687 93.7004 95.9717 93.7004 95.9746 93.7004V91.6583ZM95.9549 91.6583C95.9519 91.6583 95.9489 91.6583 95.9456 91.6583C95.9423 91.6583 95.9387 91.6583 95.9351 91.6583V93.7004C95.9381 93.7004 95.9411 93.7004 95.9444 93.7004C95.9476 93.7004 95.9512 93.7004 95.9549 93.7004V91.6583Z" fill="#D4DBE2" mask="url(#path-2-inside-1_980_20377)"/>
<path d="M65.9638 60.9102C65.9638 61.7795 65.7926 62.6402 65.46 63.4433C65.1273 64.2463 64.6398 64.976 64.0251 65.5906C63.4105 66.2053 62.6808 66.6929 61.8777 67.0255C61.0747 67.3581 60.2139 67.5293 59.3447 67.5293C58.4755 67.5293 57.6147 67.3581 56.8117 67.0255C56.0086 66.6928 55.2789 66.2053 54.6643 65.5906C54.0496 64.976 53.5621 64.2463 53.2294 63.4433C52.8968 62.6402 52.7256 61.7795 52.7256 60.9102H54.1848C54.1848 61.5878 54.3183 62.2588 54.5776 62.8848C54.8369 63.5108 55.217 64.0797 55.6961 64.5588C56.1753 65.0379 56.7441 65.418 57.3701 65.6773C57.9961 65.9366 58.6671 66.0701 59.3447 66.0701C60.0223 66.0701 60.6933 65.9366 61.3193 65.6773C61.9453 65.418 62.5141 65.0379 62.9933 64.5588C63.4724 64.0797 63.8525 63.5108 64.1118 62.8848C64.3711 62.2588 64.5046 61.5878 64.5046 60.9102H65.9638Z" fill="#D4DBE2"/>
<path d="M88.217 60.9102C88.217 61.7795 88.0458 62.6402 87.7131 63.4433C87.3805 64.2463 86.8929 64.976 86.2783 65.5906C85.6637 66.2053 84.934 66.6929 84.1309 67.0255C83.3278 67.3581 82.4671 67.5293 81.5979 67.5293C80.7286 67.5293 79.8679 67.3581 79.0649 67.0255C78.2618 66.6928 77.5321 66.2053 76.9175 65.5906C76.3028 64.976 75.8153 64.2463 75.4826 63.4433C75.15 62.6402 74.9788 61.7795 74.9788 60.9102H76.438C76.438 61.5878 76.5715 62.2588 76.8308 62.8848C77.0901 63.5108 77.4702 64.0797 77.9493 64.5588C78.4284 65.0379 78.9973 65.418 79.6233 65.6773C80.2493 65.9366 80.9203 66.0701 81.5979 66.0701C82.2755 66.0701 82.9464 65.9366 83.5725 65.6773C84.1985 65.418 84.7673 65.0379 85.2465 64.5588C85.7256 64.0797 86.1057 63.5108 86.365 62.8848C86.6243 62.2588 86.7577 61.5878 86.7577 60.9102H88.217Z" fill="#D4DBE2"/>
<rect x="64.249" y="72.9629" width="11.8892" height="1.72584" fill="#D4DBE2"/>
<path d="M12.3052 39.1701H18.451V41.188H9.16528V39.7143L15.1939 31.0314H9.17366V28.9968H18.3171V30.4369L12.3052 39.1701Z" fill="#D4DBE2"/>
<path d="M23.0342 50.2864H26.8586V51.5421H21.0803V50.625L24.8318 45.2219H21.0855V43.9558H26.7752V44.852L23.0342 50.2864Z" fill="#D4DBE2"/>
</svg>
