<svg width="69" height="29" viewBox="0 0 69 29" fill="none" xmlns="http://www.w3.org/2000/svg">
<path d="M0.255139 28.5L0.255127 28.5H17.1913H34.1275H67.9999V0.487854C67.5229 3.16469 66.5687 8.51836 65.6145 11.055C64.6604 13.5916 63.7062 13.3112 62.7521 10.997C61.7979 8.68288 60.8438 4.33497 59.8896 3.21875C58.9355 2.10253 57.9813 4.21799 57.0272 4.40589C56.073 4.59378 55.1189 2.8541 54.1647 3.1553C53.2106 3.4565 52.2564 5.79859 51.3023 6.10214C50.3481 6.40569 49.394 4.67071 48.4398 6.42835C47.4856 8.18599 46.5315 13.4363 45.5773 15.5066C44.6232 17.577 43.669 16.4675 42.7149 14.4796C41.7607 12.4917 40.8066 9.62536 39.8524 9.21872C38.8983 8.81209 37.9441 10.8651 36.99 11.1868C36.0358 11.5085 35.0817 10.0989 34.1275 10.995C33.1734 11.8911 32.2192 15.0929 31.2651 17.541C30.3109 19.9891 29.3568 21.6834 28.4026 19.6384C27.4485 17.5935 26.4943 11.8094 25.5402 9.68867C24.586 7.56794 23.6319 9.11063 22.6777 10.5288C21.7235 11.9469 20.7694 13.2405 19.8152 13.842C18.8611 14.4435 17.9069 14.353 16.9528 15.6766C15.9986 17.0001 15.0445 19.7377 14.0903 21.8906C13.1362 24.0435 12.182 25.6118 11.2279 25.4028C10.2737 25.1938 9.31957 23.2076 8.36542 21.514C7.41127 19.8204 6.45712 18.4196 5.50296 18.5402C4.54881 18.6608 3.59466 20.3028 2.64051 22.4349C1.68636 24.5669 0.732219 27.1889 0.255139 28.5Z" fill="url(#paint0_linear_281_186)"/>
<path d="M0.255127 28.5C0.732203 27.189 1.68635 24.5669 2.64051 22.4349C3.59466 20.3028 4.54881 18.6608 5.50296 18.5402C6.45711 18.4196 7.41127 19.8204 8.36542 21.514C9.31957 23.2076 10.2737 25.1938 11.2279 25.4028C12.182 25.6118 13.1362 24.0435 14.0903 21.8906C15.0445 19.7377 15.9986 17.0001 16.9528 15.6765C17.9069 14.353 18.8611 14.4435 19.8152 13.842C20.7694 13.2405 21.7235 11.9469 22.6777 10.5288C23.6319 9.11063 24.586 7.56794 25.5402 9.68867C26.4943 11.8094 27.4485 17.5935 28.4026 19.6384C29.3568 21.6834 30.3109 19.9891 31.2651 17.541C32.2192 15.0929 33.1734 11.8911 34.1275 10.995C35.0817 10.0989 36.0358 11.5085 36.99 11.1868C37.9441 10.8651 38.8983 8.81209 39.8524 9.21872C40.8066 9.62536 41.7607 12.4917 42.7149 14.4796C43.669 16.4675 44.6232 17.577 45.5773 15.5066C46.5315 13.4363 47.4857 8.18599 48.4398 6.42835C49.394 4.67071 50.3481 6.40569 51.3023 6.10214C52.2564 5.79859 53.2106 3.4565 54.1647 3.1553C55.1189 2.8541 56.073 4.59378 57.0272 4.40589C57.9813 4.21799 58.9355 2.10253 59.8896 3.21875C60.8438 4.33497 61.7979 8.68288 62.7521 10.997C63.7062 13.3112 64.6604 13.5916 65.6145 11.055C66.5687 8.51836 67.5228 3.16469 67.9999 0.487854" stroke="#52C41A" stroke-width="0.227987"/>
<defs>
<linearGradient id="paint0_linear_281_186" x1="34.1275" y1="0.487854" x2="34.1275" y2="28.5" gradientUnits="userSpaceOnUse">
<stop stop-color="#95F069"/>
<stop offset="1" stop-color="#A3F27C" stop-opacity="0"/>
</linearGradient>
</defs>
</svg>
