<svg width="34" height="34" viewBox="0 0 34 34" fill="none" xmlns="http://www.w3.org/2000/svg">
<path d="M0.678036 33.6701C1.31647 34.3619 3.94616 33.1554 6.02179 32.1879C7.5771 31.4651 13.8012 28.9113 16.8949 27.5866C17.7302 27.2294 18.9452 26.7626 19.8199 25.6122C20.5962 24.5885 22.6549 20.2404 18.5093 15.836C14.3018 11.3641 9.96772 12.5988 8.34772 13.7463C7.39429 14.4213 6.61804 15.9429 6.26929 16.7163C4.79554 19.9844 2.6946 25.9722 1.8396 28.3263C1.21241 30.0616 0.0452237 32.9838 0.678036 33.6701Z" fill="#FFC107"/>
<path d="M5.85322 17.7007C5.8926 18.1901 5.99104 18.986 6.32854 20.5188C6.55916 21.5707 6.93604 22.6732 7.2426 23.4016C8.16229 25.5926 9.45322 26.4757 10.761 27.1844C12.9829 28.3882 14.4932 28.6132 14.4932 28.6132L12.682 29.3529C12.682 29.3529 11.5851 29.1251 10.0888 28.3882C8.66291 27.6851 7.17791 26.4954 6.09229 24.1666C5.6226 23.1569 5.34978 22.1782 5.19228 21.4019C4.99822 20.4401 4.96729 19.8944 4.96729 19.8944L5.85322 17.7007Z" fill="#FF8F00"/>
<path d="M3.6283 23.4044C3.6283 23.4044 3.8533 25.2297 5.3608 27.5332C7.12705 30.2276 9.59361 30.6691 9.59361 30.6691L7.95393 31.3441C7.95393 31.3441 6.12299 30.7844 4.38205 28.4079C3.29643 26.9257 2.99268 25.1538 2.99268 25.1538L3.6283 23.4044Z" fill="#FF8F00"/>
<path d="M2.06744 27.7301C2.06744 27.7301 2.47807 29.3051 3.37807 30.4807C4.44963 31.8841 5.81369 32.2919 5.81369 32.2919L4.5565 32.8488C4.5565 32.8488 3.60307 32.6491 2.55963 31.3272C1.7665 30.3232 1.5415 29.1701 1.5415 29.1701L2.06744 27.7301Z" fill="#FF8F00"/>
<g opacity="0.44">
<path d="M1.38413 31.7294C1.32788 31.6029 1.32788 31.4594 1.38694 31.3357L8.55038 16.4801L9.72882 20.9097L2.19131 31.7969C1.98881 32.1007 1.53319 32.0613 1.38413 31.7294Z" fill="#FFFDE7"/>
</g>
<path d="M10.2968 22.3976C13.6436 26.3126 17.4546 25.8232 18.723 24.8332C19.9943 23.8404 20.9983 20.4288 17.6655 16.5785C14.1724 12.5454 10.218 13.6957 9.30395 14.5676C8.38989 15.4394 7.22551 18.806 10.2968 22.3976Z" fill="url(#paint0_linear_2_22207)"/>
<path d="M21.7915 24.0091C20.5709 22.9854 19.9212 23.1682 19.0494 23.531C17.9244 23.9979 16.1553 24.3438 13.7534 23.531L14.4762 21.79C15.9022 22.271 16.9344 22.0375 17.8259 21.5116C18.9734 20.8366 20.5428 19.9113 22.984 21.9616C24.0022 22.8166 25.0456 23.3847 25.8106 23.126C26.3675 22.9404 26.6628 22.1107 26.8119 21.4497C26.8259 21.3907 26.8484 21.2219 26.8653 21.0729C27.0003 20.0407 27.2253 17.8132 28.8847 16.6741C30.6594 15.4563 32.524 15.4563 32.524 15.4563L32.8615 18.8088C32.0037 18.6822 31.4075 18.8566 30.904 19.135C29.0084 20.1897 30.6594 24.2397 27.709 25.601C24.8712 26.92 22.5509 24.6447 21.7915 24.0091Z" fill="#03A9F4"/>
<path d="M11.3513 19.7341L10.1306 18.6401C12.3722 16.1369 11.7816 14.2976 11.3513 12.9588C11.2641 12.6888 11.1825 12.4329 11.1291 12.1882C10.9378 11.3219 10.8984 10.5682 10.9575 9.91005C10.0969 8.83849 9.71719 7.7163 9.69188 7.64037C9.16875 6.05693 9.5625 4.51287 10.4653 3.06443C12.2906 0.125366 15.5953 0.125366 15.5953 0.125366L16.6978 3.07568C15.8597 3.04193 13.1119 3.08412 12.2681 4.41443C11.2022 6.09068 11.9025 7.12568 11.9531 7.2438C12.1584 6.97662 12.3666 6.76287 12.5522 6.59693C13.8994 5.40162 15.0694 5.23005 15.8147 5.29755C16.6528 5.37349 17.4122 5.79537 17.955 6.48724C18.5484 7.24662 18.7931 8.2338 18.6047 9.13099C18.4219 10.0057 17.8397 10.7454 16.965 11.2151C15.4378 12.0363 14.1666 11.9238 13.3144 11.6397C13.32 11.6594 13.3228 11.6819 13.3284 11.7016C13.3594 11.8422 13.4213 12.0391 13.4944 12.2669C13.9922 13.8082 14.9175 16.2551 11.3513 19.7341ZM13.4184 9.1788C13.5816 9.29693 13.7531 9.39537 13.9303 9.46568C14.5209 9.70193 15.165 9.62318 15.8963 9.22943C16.3266 8.9988 16.3772 8.7513 16.3941 8.66974C16.4447 8.42505 16.3603 8.11287 16.1775 7.87943C16.0172 7.67412 15.8316 7.56724 15.6094 7.54474C15.1875 7.50818 14.6166 7.77537 14.0456 8.28443C13.7728 8.52912 13.5647 8.83005 13.4184 9.1788Z" fill="#F44336"/>
<path d="M16.2368 20.1926L14.4902 20.1447C14.4902 20.1447 15.3199 15.4591 18.0059 14.6716C18.5093 14.5254 19.0605 14.3763 19.6146 14.2947C19.9437 14.2441 20.464 14.1682 20.7199 14.0726C20.779 13.631 20.5934 13.0685 20.3852 12.4301C20.2221 11.9351 20.0534 11.426 19.9634 10.8691C19.789 9.78349 20.0787 8.82443 20.779 8.16349C21.634 7.36193 23.0149 7.10599 24.573 7.46037C25.4618 7.66287 26.1171 8.0988 26.6937 8.4813C27.5177 9.02974 27.9987 9.30818 29.0055 8.63037C30.2234 7.80912 28.6315 4.59443 27.7849 2.73818L30.9434 1.42193C31.368 2.35005 33.4184 7.12568 32.0655 9.85099C31.6099 10.7679 30.8252 11.3754 29.7959 11.6032C27.5571 12.1038 26.2465 11.2319 25.2902 10.5963C24.8374 10.2954 24.4409 10.0591 24.0105 9.93537C21.0209 9.08318 25.1946 13.4819 23.2399 15.4591C22.0671 16.6432 19.2012 16.9554 19.0155 17.0004C17.1705 17.4447 16.2368 20.1926 16.2368 20.1926Z" fill="#F48FB1"/>
<path d="M10.9549 9.91006C10.9014 10.5288 10.8761 10.8972 11.0364 11.7016C11.8099 12.2697 13.4946 12.2697 13.4946 12.2697C13.4214 12.0419 13.3567 11.8451 13.3286 11.7044C13.323 11.6847 13.3202 11.6622 13.3146 11.6426C11.6017 10.7876 10.9549 9.91006 10.9549 9.91006Z" fill="#C92B27"/>
<path d="M7.45012 12.6804L4.54199 11.2544L5.99043 9.16193L8.27137 10.6722L7.45012 12.6804Z" fill="#FFC107"/>
<path d="M3.16406 8.73162C1.67906 8.53193 0.165937 7.27193 0 7.12849L1.45969 5.41568C1.90125 5.78974 2.83781 6.41693 3.465 6.50131L3.16406 8.73162Z" fill="#FB8C00"/>
<path d="M5.78545 4.98255L3.64795 4.28224C3.89264 3.53411 3.95732 2.72693 3.83076 1.94786L6.05264 1.59068C6.23545 2.7213 6.14264 3.89411 5.78545 4.98255Z" fill="#03A9F4"/>
<path d="M21.3323 2.82968L19.1343 3.3105L19.769 6.21189L21.967 5.73107L21.3323 2.82968Z" fill="#FB8C00"/>
<path d="M24.5869 3.99818L23.04 2.36412C23.85 1.59631 24.0357 0.592244 24.0357 0.580994L26.2575 0.943806C26.2294 1.12099 25.9454 2.71287 24.5869 3.99818Z" fill="#FFC107"/>
<path d="M27.4114 12.0497L25.4463 12.6638L26.1175 14.8115L28.0825 14.1973L27.4114 12.0497Z" fill="#FB8C00"/>
<path d="M26.0185 30.7901L23.7825 30.5257C23.8781 29.7297 23.2847 28.7538 23.1216 28.5372L24.9216 27.1872C25.0566 27.3644 26.2294 28.9872 26.0185 30.7901Z" fill="#F44336"/>
<path d="M32.4364 27.9382C31.5955 27.8116 30.7349 27.761 29.8855 27.7919L29.8096 25.5419C30.7968 25.5082 31.7952 25.5644 32.7711 25.7135L32.4364 27.9382Z" fill="#FB8C00"/>
<path d="M30.992 29.4342L29.4111 31.0353L31.5866 33.1833L33.1675 31.5822L30.992 29.4342Z" fill="#F48FB1"/>
<path d="M26.3922 18.671L24.7666 16.8123L22.9079 18.4378L24.5335 20.2965L26.3922 18.671Z" fill="#F44336"/>
<defs>
<linearGradient id="paint0_linear_2_22207" x1="19.5033" y1="16.3924" x2="11.1312" y2="21.4157" gradientUnits="userSpaceOnUse">
<stop offset="0.0235" stop-color="#8F4700"/>
<stop offset="1" stop-color="#703E2D"/>
</linearGradient>
</defs>
</svg>
