<svg width="113" height="26" viewBox="0 0 113 26" fill="none" xmlns="http://www.w3.org/2000/svg">
<path d="M19.715 25.5472C16.5363 26.3987 13.1547 26.0413 10.2243 24.5441C7.29381 23.0469 5.02261 20.5163 3.84985 17.4416L0.234549 18.4102L0 17.534L15.1581 13.4744C16.7986 13.407 18.4131 13.9001 19.736 14.8727C21.0588 15.8453 22.0111 17.2393 22.436 18.8252C22.0116 17.2397 22.1394 15.557 22.7983 14.0538C23.4572 12.5505 24.608 11.3162 26.0615 10.5538L29.2257 9.7058C29.2945 10.0024 29.3542 10.3001 29.4016 10.5967C29.9226 13.8455 29.2207 17.1722 27.4315 19.9336C25.6424 22.695 22.8931 24.6951 19.715 25.5472Z" fill="url(#paint0_linear_786_18274)"/>
<path d="M32.7057 8.46512L26.2363 10.1983C24.5543 10.3292 22.8795 9.86744 21.5023 8.89304C20.125 7.91863 19.1321 6.49303 18.6956 4.86335C19.1318 6.49276 18.9847 8.22338 18.2795 9.75572C17.5744 11.288 16.3558 12.5256 14.8345 13.2543L3.48006 16.299C3.41089 15.9983 3.35225 15.701 3.30413 15.407C2.7817 12.1577 3.4829 8.83004 5.27208 6.0678C7.06127 3.30556 9.8113 1.30502 12.9902 0.453155C16.1691 -0.398708 19.551 -0.0413554 22.4817 1.45609C25.4123 2.95354 27.6835 5.48466 28.8559 8.55984L32.4712 7.59118L32.7057 8.46512Z" fill="url(#paint1_linear_786_18274)"/>
<path d="M44.6662 9.66628C48.1784 9.66628 49.7533 10.7285 49.7533 13.2395H47.6392C47.6392 11.9262 46.468 11.5398 44.2685 11.5398C42.3508 11.5398 41.9872 12.0418 41.9872 12.5239C41.9872 13.0655 42.8412 13.4577 45.0956 13.8383C47.9624 14.3204 49.8802 14.6099 49.8802 16.948C49.8802 19.0726 48.265 19.9025 45.2176 19.9025C41.5578 19.9025 39.928 18.8403 39.928 16.3294H42.0482C42.0482 17.5854 43.4402 18.0103 45.5201 18.0103C47.2158 18.0103 47.8612 17.6041 47.8612 17.0052C47.8612 16.1367 46.7315 16.0982 44.6113 15.7504C42.4154 15.4212 39.9682 14.862 39.9682 12.5636C39.9621 10.5161 41.5578 9.66628 44.6662 9.66628Z" fill="url(#paint2_linear_786_18274)"/>
<path d="M56.1917 11.5395C55.0413 11.5395 53.5676 11.6562 53.5676 13.2904H51.4474C51.4474 10.6838 53.2651 9.66007 56.1917 9.66007C59.5624 9.66007 61.2178 10.6838 61.2178 13.7737V19.6103H58.9V18.2994C58.4962 19.2461 57.547 19.9022 55.3268 19.9022C52.7832 19.9022 50.8862 19.2648 50.8862 16.8671C50.8862 14.9364 52.4807 14.1251 55.3268 13.8321L58.9 13.4819V13.4434C58.8963 11.6924 57.3018 11.5395 56.1917 11.5395ZM55.6671 15.4021C54.3545 15.5375 53.3053 15.8854 53.3053 16.8309C53.3053 17.5652 53.9153 18.0099 55.6464 18.0099C57.9069 18.0099 58.795 17.0819 58.8963 16.3675V15.0928L55.6671 15.4021Z" fill="url(#paint3_linear_786_18274)"/>
<path d="M64.851 11.9833H62.4294V9.95569H64.851L65.6586 6.09186H67.1725L67.153 9.95569H72.2194V11.9833H67.1725V15.8857C67.1725 16.8896 67.3543 17.8164 68.5852 17.8164C69.494 17.8164 70.1809 17.3915 70.1809 15.9487H72.2999C72.2999 18.9429 70.8665 19.9083 68.5047 19.9083C66.1234 19.9083 64.8449 18.8273 64.8449 16.181L64.851 11.9833Z" fill="url(#paint4_linear_786_18274)"/>
<path d="M75.8923 9.95556V15.1513C75.8923 16.7739 76.4169 17.8163 78.5762 17.8163C80.4939 17.8163 81.504 16.7739 81.504 14.7813V9.95322H83.8219V19.6105H81.504V18.2587C80.8184 19.3011 79.6875 19.9 77.9308 19.9C75.003 19.9 73.5708 18.6253 73.5708 15.3229V9.95322L75.8923 9.95556Z" fill="url(#paint5_linear_786_18274)"/>
<path d="M85.8433 19.613V9.95578H88.1611V11.2877C88.7869 10.264 89.8166 9.66628 91.2109 9.66628C93.6508 9.66628 94.9659 11.0367 94.9659 13.857H92.8456C92.8456 12.6021 92.2003 11.7324 90.7059 11.7324C89.1114 11.7324 88.1623 12.776 88.1623 14.7675V19.6154L85.8433 19.613Z" fill="url(#paint6_linear_786_18274)"/>
<path d="M104.313 19.6129V14.4171C104.313 12.7759 103.789 11.7323 101.629 11.7323C99.7118 11.7323 98.7017 12.7759 98.7017 14.7673V19.6152H96.3838V9.95797H98.7017V11.3097C99.369 10.2661 100.519 9.66847 102.275 9.66847C105.203 9.66847 106.635 10.9432 106.635 14.2269V19.6152L104.313 19.6129Z" fill="url(#paint7_linear_786_18274)"/>
<path d="M112.15 10.1892C112.15 10.557 112.035 10.9165 111.822 11.2222C111.608 11.5279 111.304 11.7659 110.949 11.9061C110.593 12.0463 110.202 12.0824 109.826 12.0098C109.449 11.9372 109.103 11.7591 108.832 11.4982C108.561 11.2373 108.377 10.9053 108.304 10.5443C108.23 10.1833 108.27 9.80949 108.419 9.47034C108.568 9.13119 108.819 8.84194 109.139 8.63928C109.46 8.43662 109.837 8.32966 110.221 8.33198C110.734 8.33445 111.225 8.53128 111.586 8.87937C111.948 9.22747 112.15 9.69845 112.15 10.1892ZM108.589 10.1892C108.589 10.496 108.684 10.796 108.862 11.0511C109.04 11.3062 109.293 11.505 109.59 11.6225C109.886 11.7399 110.212 11.7706 110.526 11.7107C110.841 11.6509 111.13 11.5031 111.356 11.2862C111.583 11.0692 111.738 10.7928 111.8 10.4918C111.863 10.1909 111.831 9.87897 111.708 9.5955C111.585 9.31202 111.377 9.06973 111.111 8.89926C110.844 8.7288 110.531 8.63781 110.21 8.63781C109.78 8.63812 109.368 8.80167 109.064 9.09254C108.76 9.38341 108.589 9.77783 108.589 10.1892Z" fill="url(#paint8_linear_786_18274)"/>
<path d="M110.657 10.2369L110.666 10.2439C110.764 10.3064 110.845 10.391 110.901 10.4902C110.937 10.5541 110.966 10.6214 110.989 10.691C111.017 10.7762 111.039 10.8638 111.058 10.9502C111.078 11.0365 111.092 11.1183 111.107 11.2023C111.107 11.2093 111.107 11.2163 111.107 11.2233H111.096H110.802L110.795 11.1755C110.776 11.0504 110.746 10.9271 110.707 10.8066C110.683 10.7355 110.652 10.6667 110.615 10.6011C110.589 10.5529 110.556 10.5081 110.518 10.4681C110.476 10.4236 110.425 10.3878 110.368 10.363C110.316 10.3411 110.26 10.33 110.203 10.3303H109.815C109.815 10.3303 109.815 10.3373 109.815 10.3408V11.2256H109.511C109.511 11.2256 109.511 11.2186 109.511 11.2151V9.20501H109.527L109.725 9.17817C109.78 9.17116 109.836 9.16532 109.892 9.16065C109.948 9.15599 110.032 9.15248 110.103 9.15131C110.174 9.15015 110.225 9.15131 110.285 9.15131C110.402 9.15875 110.517 9.18234 110.627 9.22136C110.708 9.24856 110.783 9.28798 110.849 9.33809C110.919 9.39236 110.972 9.46377 111.003 9.5447C111.02 9.58974 111.03 9.63696 111.032 9.68478C111.037 9.74191 111.032 9.79931 111.019 9.85521C110.994 9.96112 110.932 10.0557 110.843 10.1237C110.793 10.1633 110.737 10.1963 110.677 10.2218L110.657 10.2369ZM109.817 10.1062H110.16C110.203 10.1062 110.247 10.1062 110.29 10.1062C110.346 10.102 110.403 10.093 110.458 10.0793C110.509 10.0665 110.557 10.0456 110.601 10.0175C110.662 9.97659 110.705 9.91549 110.723 9.84587C110.734 9.79999 110.737 9.75268 110.732 9.70579C110.729 9.67066 110.72 9.63632 110.704 9.60424C110.678 9.5511 110.635 9.50678 110.582 9.477C110.544 9.45519 110.503 9.43832 110.46 9.42681C110.385 9.40551 110.307 9.39336 110.229 9.39062C110.183 9.39062 110.137 9.39062 110.092 9.39062C110.047 9.39062 110.017 9.39062 109.981 9.39062C109.944 9.39062 109.885 9.39061 109.836 9.39879C109.828 9.39707 109.819 9.39707 109.811 9.39879C109.816 9.41513 109.815 10.0863 109.817 10.1062Z" fill="url(#paint9_linear_786_18274)"/>
<defs>
<linearGradient id="paint0_linear_786_18274" x1="14.7847" y1="9.7058" x2="15.817" y2="20.3787" gradientUnits="userSpaceOnUse">
<stop stop-color="#8627FF"/>
<stop offset="1" stop-color="#3F1574"/>
</linearGradient>
<linearGradient id="paint1_linear_786_18274" x1="17.9206" y1="0" x2="18.9535" y2="10.6759" gradientUnits="userSpaceOnUse">
<stop stop-color="#8627FF"/>
<stop offset="1" stop-color="#3F1574"/>
</linearGradient>
<linearGradient id="paint2_linear_786_18274" x1="44.9041" y1="9.66628" x2="46.0872" y2="16.2202" gradientUnits="userSpaceOnUse">
<stop stop-color="#8627FF"/>
<stop offset="1" stop-color="#3F1574"/>
</linearGradient>
<linearGradient id="paint3_linear_786_18274" x1="56.052" y1="9.66007" x2="57.1956" y2="16.2325" gradientUnits="userSpaceOnUse">
<stop stop-color="#8627FF"/>
<stop offset="1" stop-color="#3F1574"/>
</linearGradient>
<linearGradient id="paint4_linear_786_18274" x1="67.3647" y1="6.09186" x2="69.4811" y2="14.7064" gradientUnits="userSpaceOnUse">
<stop stop-color="#8627FF"/>
<stop offset="1" stop-color="#3F1574"/>
</linearGradient>
<linearGradient id="paint5_linear_786_18274" x1="78.6963" y1="9.95322" x2="79.7847" y2="16.344" gradientUnits="userSpaceOnUse">
<stop stop-color="#8627FF"/>
<stop offset="1" stop-color="#3F1574"/>
</linearGradient>
<linearGradient id="paint6_linear_786_18274" x1="90.4046" y1="9.66628" x2="91.6192" y2="16.0115" gradientUnits="userSpaceOnUse">
<stop stop-color="#8627FF"/>
<stop offset="1" stop-color="#3F1574"/>
</linearGradient>
<linearGradient id="paint7_linear_786_18274" x1="101.509" y1="9.66847" x2="102.598" y2="16.0593" gradientUnits="userSpaceOnUse">
<stop stop-color="#8627FF"/>
<stop offset="1" stop-color="#3F1574"/>
</linearGradient>
<linearGradient id="paint8_linear_786_18274" x1="110.209" y1="8.33194" x2="110.61" y2="10.7203" gradientUnits="userSpaceOnUse">
<stop stop-color="#8627FF"/>
<stop offset="1" stop-color="#3F1574"/>
</linearGradient>
<linearGradient id="paint9_linear_786_18274" x1="110.309" y1="9.15079" x2="110.607" y2="10.4546" gradientUnits="userSpaceOnUse">
<stop stop-color="#8627FF"/>
<stop offset="1" stop-color="#3F1574"/>
</linearGradient>
</defs>
</svg>
