<svg width="156" height="36" viewBox="0 0 156 36" fill="none" xmlns="http://www.w3.org/2000/svg">
<path d="M27.2976 35.3729C22.8964 36.5519 18.2142 36.057 14.1567 33.984C10.0991 31.9109 6.95438 28.407 5.33056 24.1497L0.324761 25.4909L0 24.2777L20.9881 18.6567C23.2596 18.5633 25.4951 19.2461 27.3268 20.5928C29.1584 21.9394 30.4769 23.8696 31.0653 26.0655C30.4777 23.8702 30.6545 21.5403 31.5669 19.4589C32.4792 17.3774 34.0726 15.6684 36.0851 14.6128L40.4663 13.4386C40.5616 13.8492 40.6443 14.2615 40.7099 14.6721C41.4313 19.1705 40.4594 23.7766 37.9821 27.6001C35.5049 31.4236 31.6981 34.193 27.2976 35.3729Z" fill="white"/>
<path d="M45.2847 11.7209L36.3271 14.1208C33.9981 14.302 31.6792 13.6626 29.7722 12.3134C27.8652 10.9643 26.4904 8.99035 25.8861 6.73388C26.4901 8.98997 26.2863 11.3862 25.31 13.5079C24.3337 15.6296 22.6463 17.3432 20.5399 18.3521L4.81839 22.5679C4.72263 22.1515 4.64142 21.7398 4.57481 21.3328C3.85143 16.8337 4.82232 12.2262 7.29966 8.40157C9.777 4.57693 13.5847 1.80695 17.9863 0.627446C22.3879 -0.552058 27.0705 -0.0572613 31.1283 2.01613C35.1862 4.08951 38.3309 7.59415 39.9542 11.8521L44.96 10.5109L45.2847 11.7209Z" fill="white"/>
<path d="M61.8454 13.3842C66.7084 13.3842 68.8891 14.855 68.8891 18.3316H65.9618C65.9618 16.5133 64.3402 15.9783 61.2947 15.9783C58.6394 15.9783 58.136 16.6733 58.136 17.3408C58.136 18.0908 59.3184 18.6339 62.44 19.1608C66.4094 19.8283 69.0647 20.2292 69.0647 23.4666C69.0647 26.4082 66.8283 27.5574 62.6089 27.5574C57.5415 27.5574 55.2848 26.0866 55.2848 22.6099H58.2205C58.2205 24.3491 60.1478 24.9374 63.0278 24.9374C65.3757 24.9374 66.2692 24.3749 66.2692 23.5458C66.2692 22.3433 64.7051 22.2899 61.7694 21.8083C58.7289 21.3525 55.3405 20.5783 55.3405 17.3958C55.3321 14.5608 57.5415 13.3842 61.8454 13.3842Z" fill="white"/>
<path d="M77.8043 15.9782C76.2114 15.9782 74.171 16.1398 74.171 18.4026H71.2352C71.2352 14.7935 73.7521 13.376 77.8043 13.376C82.4714 13.376 84.7635 14.7935 84.7635 19.0718V27.1532H81.5542V25.3382C80.9951 26.649 79.6809 27.5573 76.6067 27.5573C73.0849 27.5573 70.4583 26.6748 70.4583 23.355C70.4583 20.6816 72.666 19.5583 76.6067 19.1526L81.5542 18.6677V18.6144C81.5491 16.1899 79.3414 15.9782 77.8043 15.9782ZM77.078 21.3265C75.2605 21.514 73.8078 21.9957 73.8078 23.3049C73.8078 24.3215 74.6524 24.9373 77.0492 24.9373C80.1792 24.9373 81.4089 23.6524 81.5491 22.6632V20.8982L77.078 21.3265Z" fill="white"/>
<path d="M89.7938 16.5922H86.4409V13.7847H89.7938L90.912 8.43481H93.0083L92.9812 13.7847H99.9962V16.5922H93.0083V21.9955C93.0083 23.3855 93.2599 24.6688 94.9643 24.6688C96.2227 24.6688 97.1737 24.0805 97.1737 22.0828H100.108C100.108 26.2286 98.123 27.5652 94.8528 27.5652C91.5556 27.5652 89.7854 26.0686 89.7854 22.4044L89.7938 16.5922Z" fill="white"/>
<path d="M105.082 13.7847V20.9788C105.082 23.2255 105.808 24.6688 108.798 24.6688C111.454 24.6688 112.852 23.2255 112.852 20.4665V13.7815H116.061V27.1531H112.852V25.2814C111.903 26.7248 110.337 27.5539 107.905 27.5539C103.851 27.5539 101.868 25.7889 101.868 21.2164V13.7815L105.082 13.7847Z" fill="white"/>
<path d="M118.86 27.1566V13.785H122.07V15.6292C122.936 14.2117 124.362 13.3842 126.293 13.3842C129.671 13.3842 131.492 15.2817 131.492 19.1866H128.556C128.556 17.4491 127.662 16.245 125.593 16.245C123.386 16.245 122.071 17.6899 122.071 20.4473V27.1598L118.86 27.1566Z" fill="white"/>
<path d="M144.434 27.1566V19.9625C144.434 17.69 143.707 16.2451 140.718 16.2451C138.062 16.2451 136.664 17.69 136.664 20.4474V27.1599H133.454V13.7883H136.664V15.66C137.588 14.215 139.181 13.3875 141.611 13.3875C145.665 13.3875 147.648 15.1524 147.648 19.6991V27.1599L144.434 27.1566Z" fill="white"/>
<path d="M155.285 14.1084C155.285 14.6177 155.127 15.1155 154.831 15.5388C154.535 15.962 154.114 16.2916 153.622 16.4857C153.13 16.6799 152.589 16.7298 152.067 16.6293C151.545 16.5288 151.066 16.2822 150.691 15.921C150.316 15.5597 150.061 15.1 149.96 14.6001C149.858 14.1002 149.913 13.5827 150.119 13.1131C150.325 12.6435 150.672 12.243 151.117 11.9624C151.561 11.6818 152.082 11.5337 152.614 11.5369C153.324 11.5403 154.004 11.8129 154.505 12.2948C155.005 12.7768 155.286 13.429 155.285 14.1084ZM150.354 14.1084C150.354 14.5333 150.486 14.9486 150.732 15.3018C150.979 15.6551 151.33 15.9304 151.74 16.093C152.15 16.2556 152.602 16.2981 153.037 16.2152C153.472 16.1323 153.872 15.9277 154.186 15.6273C154.5 15.3269 154.714 14.9442 154.801 14.5275C154.887 14.1108 154.843 13.6789 154.673 13.2864C154.503 12.8939 154.215 12.5584 153.846 12.3224C153.477 12.0864 153.043 11.9604 152.599 11.9604C152.004 11.9608 151.433 12.1873 151.012 12.59C150.591 12.9927 150.355 13.5389 150.354 14.1084Z" fill="white"/>
<path d="M153.217 14.1745L153.231 14.1842C153.366 14.2708 153.478 14.3879 153.555 14.5253C153.605 14.6138 153.646 14.7069 153.677 14.8033C153.715 14.9213 153.746 15.0425 153.773 15.1621C153.8 15.2817 153.82 15.3948 153.84 15.5112C153.84 15.5209 153.84 15.5306 153.84 15.5403H153.825H153.418L153.408 15.474C153.382 15.3009 153.341 15.1301 153.286 14.9633C153.254 14.8648 153.211 14.7696 153.16 14.6788C153.123 14.612 153.078 14.55 153.025 14.4946C152.966 14.433 152.896 14.3835 152.817 14.3491C152.745 14.3188 152.667 14.3034 152.589 14.3038H152.052C152.052 14.3038 152.052 14.3135 152.052 14.3184V15.5435H151.631C151.631 15.5435 151.631 15.5338 151.631 15.529V12.7457H151.653L151.927 12.7086C152.003 12.6989 152.08 12.6908 152.158 12.6843C152.236 12.6778 152.352 12.673 152.45 12.6714C152.548 12.6698 152.619 12.6714 152.702 12.6714C152.864 12.6817 153.024 12.7143 153.177 12.7684C153.288 12.806 153.391 12.8606 153.484 12.93C153.581 13.0051 153.654 13.104 153.697 13.2161C153.72 13.2784 153.734 13.3438 153.737 13.41C153.743 13.4891 153.737 13.5686 153.719 13.646C153.684 13.7926 153.598 13.9237 153.476 14.0177C153.406 14.0726 153.328 14.1183 153.246 14.1535L153.217 14.1745ZM152.055 13.9935H152.53C152.589 13.9935 152.65 13.9935 152.709 13.9935C152.787 13.9876 152.865 13.9752 152.942 13.9563C153.012 13.9385 153.079 13.9096 153.139 13.8707C153.224 13.8141 153.285 13.7295 153.308 13.6331C153.324 13.5695 153.328 13.504 153.322 13.4391C153.317 13.3905 153.304 13.3429 153.283 13.2985C153.246 13.2249 153.188 13.1636 153.114 13.1223C153.061 13.0921 153.004 13.0688 152.945 13.0528C152.841 13.0233 152.733 13.0065 152.624 13.0027C152.562 13.0027 152.498 13.0027 152.435 13.0027C152.373 13.0027 152.332 13.0027 152.281 13.0027C152.231 13.0027 152.148 13.0027 152.08 13.014C152.069 13.0117 152.058 13.0117 152.047 13.014C152.053 13.0367 152.052 13.966 152.055 13.9935Z" fill="white"/>
</svg>
