<svg width="48" height="49" viewBox="0 0 48 49" fill="none" xmlns="http://www.w3.org/2000/svg">
<path fill-rule="evenodd" clip-rule="evenodd" d="M10.665 9.92138L20.7416 5.22839C22.8269 4.25721 25.2072 4.2572 27.2924 5.22838L37.3291 9.90277C40.2641 11.2697 42.1906 14.3419 41.985 17.7006C41.1962 30.5839 37.6813 36.4079 28.1797 43.1645C25.6722 44.9476 22.3645 44.9432 19.8552 43.163C10.3828 36.443 6.73742 30.7002 6.01233 17.6555C5.82686 14.3188 7.7503 11.2788 10.665 9.92138ZM31.1288 21.4878C31.6743 20.8643 31.6111 19.9167 30.9877 19.3712C30.3642 18.8256 29.4166 18.8888 28.8711 19.5123L23.1313 26.0721C22.9551 26.2734 22.6516 26.3004 22.4426 26.1332L18.937 23.3287C18.2901 22.8112 17.3461 22.9161 16.8286 23.563C16.3111 24.2099 16.416 25.1538 17.0629 25.6713L20.5685 28.4758C22.0311 29.6459 24.1556 29.4571 25.389 28.0476L31.1288 21.4878Z" fill="#4A158C"/>
</svg>
