<svg width="30" height="30" viewBox="0 0 30 30" fill="none" xmlns="http://www.w3.org/2000/svg">
<g clip-path="url(#clip0_1026_23215)">
<path d="M15 30C23.2843 30 30 23.2843 30 15C30 6.71573 23.2843 0 15 0C6.71573 0 0 6.71573 0 15C0 23.2843 6.71573 30 15 30Z" fill="#26A17B"/>
<path fill-rule="evenodd" clip-rule="evenodd" d="M16.8019 16.2964V16.2945C16.6987 16.302 16.1672 16.3339 14.9812 16.3339C14.0344 16.3339 13.3678 16.3057 13.1334 16.2945V16.2973C9.48844 16.137 6.76781 15.5023 6.76781 14.7429C6.76781 13.9845 9.48844 13.3498 13.1334 13.1867V15.6654C13.3715 15.6823 14.054 15.7226 14.9972 15.7226C16.1287 15.7226 16.6959 15.6757 16.8019 15.6664V13.1886C20.4394 13.3507 23.1534 13.9854 23.1534 14.7429C23.1534 15.5023 20.4394 16.1351 16.8019 16.2964ZM16.8019 12.9307V10.7126H21.8775V7.33008H8.05781V10.7126H13.1334V12.9298C9.00844 13.1192 5.90625 13.9367 5.90625 14.9154C5.90625 15.8942 9.00844 16.7107 13.1334 16.9011V24.0092H16.8019V16.8992C20.9203 16.7098 24.015 15.8932 24.015 14.9154C24.015 13.9376 20.9203 13.1211 16.8019 12.9307Z" fill="white"/>
</g>
<defs>
<clipPath id="clip0_1026_23215">
<rect width="30" height="30" fill="white"/>
</clipPath>
</defs>
</svg>
