<svg width="80" height="80" viewBox="0 0 80 80" fill="none" xmlns="http://www.w3.org/2000/svg">
<g clip-path="url(#clip0_1231_22433)">
<path d="M50.1562 45.625C41.4545 45.625 34.375 38.5455 34.375 29.8437C34.375 21.142 41.4545 14.0625 50.1562 14.0625C58.858 14.0625 65.9375 21.1419 65.9375 29.8437C65.9375 38.5456 58.858 45.625 50.1562 45.625ZM50.1562 17.5002C43.3498 17.5002 37.8125 23.0375 37.8125 29.8439C37.8125 36.6503 43.3498 42.1877 50.1562 42.1877C56.9627 42.1877 62.5 36.6503 62.5 29.8439C62.5 23.0375 56.9627 17.5002 50.1562 17.5002Z" fill="#1639CE"/>
<path d="M50.1562 38.5938C45.3314 38.5938 41.4062 34.6684 41.4062 29.8438C41.4062 25.0191 45.3314 21.0938 50.1562 21.0938C54.9811 21.0938 58.9062 25.0191 58.9062 29.8438C58.9062 34.6684 54.9811 38.5938 50.1562 38.5938ZM50.1562 24.5312C47.2269 24.5312 44.8438 26.9144 44.8438 29.8438C44.8438 32.7731 47.2269 35.1562 50.1562 35.1562C53.0856 35.1562 55.4688 32.7731 55.4688 29.8438C55.4688 26.9144 53.0856 24.5312 50.1562 24.5312Z" fill="#1639CE"/>
<path d="M50.1563 0C34.2773 0 21.2551 12.4656 20.3617 28.1248H15.7812C14.832 28.1248 14.0624 28.8944 14.0624 29.8436C14.0624 30.7928 14.832 31.5623 15.7812 31.5623H20.3617C20.666 36.8962 22.3776 41.8595 25.1298 46.0858L2.28135 67.0919C0.853064 68.4048 0.0435329 70.2247 0.00165792 72.2161C-0.0417796 74.287 0.770095 76.3116 2.22931 77.7708C3.65103 79.1927 5.60978 80 7.62541 80C7.67806 80 7.73103 79.9994 7.78369 79.9983C9.77525 79.9564 11.5953 79.1469 12.9082 77.7188L33.9142 54.8702C38.5912 57.9159 44.1709 59.6873 50.1563 59.6873C66.6121 59.6872 79.9999 46.2995 79.9999 29.8436C79.9999 13.3877 66.6121 0 50.1563 0ZM10.3776 75.3922C9.70447 76.1244 8.75775 76.5395 7.71166 76.5616C6.57197 76.5856 5.45994 76.1402 4.65994 75.3402C3.85978 74.5398 3.41447 73.4275 3.43853 72.2883C3.46056 71.2422 3.87588 70.2955 4.60775 69.6223L20.536 54.9788L25.0213 59.4641L10.3776 75.3922ZM27.3498 56.9312L23.0687 52.6502L27.1807 48.8698C28.3717 50.3056 29.6945 51.6283 31.1302 52.8194L27.3498 56.9312ZM50.1563 56.2497C36.1734 56.2497 24.694 45.3248 23.8056 31.5623H27.4079C28.2895 43.3414 38.1556 52.6561 50.1562 52.6561C62.7349 52.6561 72.9685 42.4225 72.9685 29.8436C72.9685 17.2647 62.7351 7.03125 50.1563 7.03125C38.1556 7.03125 28.2896 16.3458 27.4081 28.125H23.8057C24.694 14.3623 36.1734 3.4375 50.1563 3.4375C64.7168 3.4375 76.5624 15.2833 76.5624 29.8436C76.5624 44.4039 64.7168 56.2497 50.1563 56.2497ZM50.1563 28.1248H30.857C31.7296 18.2434 40.0521 10.4686 50.1563 10.4686C60.8396 10.4688 69.5312 19.1603 69.5312 29.8436C69.5312 40.5269 60.8396 49.2186 50.1563 49.2186C40.0521 49.2186 31.7296 41.4437 30.857 31.5623H50.1563C51.1056 31.5623 51.8751 30.7928 51.8751 29.8436C51.8751 28.8944 51.1056 28.1248 50.1563 28.1248Z" fill="#080808"/>
<path d="M12.4421 37.3462H1.71871C1.10465 37.3462 0.537148 37.0185 0.230273 36.4868C-0.0766016 35.9551 -0.0767578 35.2998 0.230273 34.768L3.07309 29.844L0.230273 24.9199C-0.0767578 24.3882 -0.0767578 23.7329 0.230273 23.2012C0.537305 22.6695 1.1048 22.3418 1.71871 22.3418H12.4421C13.0562 22.3418 13.6237 22.6695 13.9306 23.2012L17.2696 28.9846C17.5767 29.5163 17.5767 30.1716 17.2696 30.7034L13.9306 36.4868C13.6236 37.0185 13.0562 37.3462 12.4421 37.3462ZM4.69574 33.9087H11.45L13.7967 29.844L11.45 25.7793H4.69574L6.54637 28.9846C6.8534 29.5163 6.8534 30.1716 6.54637 30.7034L4.69574 33.9087Z" fill="#1639CE"/>
</g>
<defs>
<clipPath id="clip0_1231_22433">
<rect width="80" height="80" fill="white"/>
</clipPath>
</defs>
</svg>
