<svg width="156" height="36" viewBox="0 0 156 36" fill="none" xmlns="http://www.w3.org/2000/svg">
<path d="M27.2976 35.3718C22.8964 36.5508 18.2142 36.0559 14.1567 33.9829C10.0991 31.9098 6.95438 28.4059 5.33056 24.1486L0.324761 25.4898L0 24.2766L20.9881 18.6556C23.2596 18.5622 25.4951 19.245 27.3268 20.5917C29.1584 21.9383 30.4769 23.8685 31.0653 26.0644C30.4777 23.8691 30.6545 21.5392 31.5669 19.4578C32.4792 17.3763 34.0726 15.6673 36.0851 14.6117L40.4663 13.4375C40.5616 13.8481 40.6443 14.2604 40.7099 14.671C41.4313 19.1694 40.4594 23.7755 37.9821 27.599C35.5049 31.4225 31.6981 34.1919 27.2976 35.3718Z" fill="#0033CC"/>
<path d="M45.2848 11.7209L36.3271 14.1208C33.9982 14.302 31.6792 13.6626 29.7723 12.3134C27.8653 10.9643 26.4905 8.99035 25.8862 6.73388C26.4901 8.98997 26.2864 11.3862 25.3101 13.5079C24.3337 15.6296 22.6464 17.3432 20.54 18.3521L4.81845 22.5679C4.72269 22.1515 4.64149 21.7398 4.57487 21.3328C3.85149 16.8337 4.82238 12.2262 7.29972 8.40157C9.77706 4.57693 13.5848 1.80695 17.9864 0.627446C22.3879 -0.552058 27.0705 -0.0572613 31.1284 2.01613C35.1862 4.08951 38.331 7.59415 39.9542 11.8521L44.96 10.5109L45.2848 11.7209Z" fill="#0033CC"/>
<path d="M61.8453 13.3828C66.7083 13.3828 68.889 14.8536 68.889 18.3303H65.9617C65.9617 16.512 64.3402 15.977 61.2947 15.977C58.6393 15.977 58.136 16.672 58.136 17.3395C58.136 18.0895 59.3184 18.6325 62.4399 19.1594C66.4094 19.827 69.0647 20.2278 69.0647 23.4652C69.0647 26.4069 66.8283 27.5561 62.6088 27.5561C57.5414 27.5561 55.2847 26.0852 55.2847 22.6086H58.2204C58.2204 24.3477 60.1477 24.9361 63.0277 24.9361C65.3756 24.9361 66.2692 24.3736 66.2692 23.5444C66.2692 22.3419 64.705 22.2886 61.7693 21.8069C58.7289 21.3511 55.3405 20.5769 55.3405 17.3944C55.332 14.5595 57.5414 13.3828 61.8453 13.3828Z" fill="#0033CC"/>
<path d="M77.8042 15.9772C76.2114 15.9772 74.1709 16.1388 74.1709 18.4017H71.2352C71.2352 14.7925 73.752 13.375 77.8042 13.375C82.4713 13.375 84.7635 14.7925 84.7635 19.0708V27.1523H81.5541V25.3372C80.995 26.648 79.6809 27.5563 76.6066 27.5563C73.0848 27.5563 70.4582 26.6738 70.4582 23.354C70.4582 20.6806 72.6659 19.5573 76.6066 19.1516L81.5541 18.6667V18.6134C81.549 16.189 79.3413 15.9772 77.8042 15.9772ZM77.0779 21.3255C75.2604 21.513 73.8077 21.9947 73.8077 23.3039C73.8077 24.3205 74.6523 24.9363 77.0492 24.9363C80.1792 24.9363 81.4088 23.6514 81.549 22.6622V20.8972L77.0779 21.3255Z" fill="#0033CC"/>
<path d="M89.7938 16.591H86.4409V13.7835H89.7938L90.912 8.43359H93.0083L92.9812 13.7835H99.9962V16.591H93.0083V21.9943C93.0083 23.3843 93.2599 24.6676 94.9643 24.6676C96.2227 24.6676 97.1737 24.0793 97.1737 22.0816H100.108C100.108 26.2273 98.123 27.564 94.8528 27.564C91.5556 27.564 89.7854 26.0673 89.7854 22.4032L89.7938 16.591Z" fill="#0033CC"/>
<path d="M105.082 13.7845V20.9786C105.082 23.2253 105.808 24.6686 108.798 24.6686C111.453 24.6686 112.852 23.2252 112.852 20.4662V13.7812H116.061V27.1528H112.852V25.2812C111.903 26.7245 110.337 27.5537 107.905 27.5537C103.851 27.5537 101.868 25.7887 101.868 21.2162V13.7812L105.082 13.7845Z" fill="#0033CC"/>
<path d="M118.86 27.1552V13.7836H122.07V15.6278C122.936 14.2104 124.362 13.3828 126.292 13.3828C129.671 13.3828 131.492 15.2803 131.492 19.1853H128.556C128.556 17.4478 127.662 16.2437 125.593 16.2437C123.385 16.2437 122.071 17.6886 122.071 20.446V27.1585L118.86 27.1552Z" fill="#0033CC"/>
<path d="M144.434 27.1559V19.9618C144.434 17.6893 143.707 16.2443 140.718 16.2443C138.062 16.2443 136.664 17.6893 136.664 20.4467V27.1592H133.454V13.7876H136.664V15.6592C137.588 14.2143 139.18 13.3867 141.611 13.3867C145.665 13.3867 147.648 15.1517 147.648 19.6983V27.1592L144.434 27.1559Z" fill="#0033CC"/>
<path d="M155.285 14.1067C155.285 14.616 155.127 15.1138 154.831 15.537C154.534 15.9603 154.114 16.2899 153.622 16.484C153.13 16.6782 152.588 16.7281 152.067 16.6276C151.545 16.527 151.066 16.2805 150.691 15.9193C150.316 15.558 150.061 15.0983 149.959 14.5984C149.858 14.0985 149.913 13.581 150.119 13.1114C150.325 12.6418 150.672 12.2413 151.117 11.9607C151.561 11.6801 152.082 11.532 152.614 11.5352C153.324 11.5386 154.004 11.8112 154.504 12.2931C155.005 12.7751 155.286 13.4272 155.285 14.1067ZM150.354 14.1067C150.354 14.5316 150.486 14.9469 150.732 15.3001C150.979 15.6534 151.33 15.9287 151.74 16.0913C152.15 16.2538 152.601 16.2964 153.037 16.2135C153.472 16.1306 153.872 15.926 154.186 15.6256C154.5 15.3252 154.714 14.9425 154.801 14.5258C154.887 14.1091 154.843 13.6772 154.673 13.2847C154.503 12.8922 154.215 12.5567 153.846 12.3207C153.477 12.0847 153.043 11.9587 152.599 11.9587C152.004 11.9591 151.433 12.1855 151.012 12.5883C150.591 12.991 150.355 13.5372 150.354 14.1067Z" fill="#0033CC"/>
<path d="M153.217 14.1718L153.231 14.1815C153.366 14.2681 153.478 14.3852 153.555 14.5226C153.605 14.6111 153.646 14.7042 153.677 14.8006C153.715 14.9186 153.746 15.0398 153.773 15.1594C153.8 15.279 153.82 15.3921 153.84 15.5085C153.84 15.5182 153.84 15.5279 153.84 15.5376H153.825H153.418L153.408 15.4713C153.382 15.2982 153.341 15.1274 153.286 14.9606C153.254 14.8622 153.211 14.7669 153.16 14.6761C153.123 14.6093 153.078 14.5474 153.025 14.4919C152.966 14.4303 152.896 14.3808 152.817 14.3464C152.745 14.3161 152.667 14.3007 152.589 14.3011H152.052C152.052 14.3011 152.052 14.3108 152.052 14.3157V15.5408H151.631C151.631 15.5408 151.631 15.5311 151.631 15.5263V12.743H151.653L151.927 12.7059C152.003 12.6962 152.08 12.6881 152.158 12.6816C152.236 12.6752 152.352 12.6703 152.45 12.6687C152.548 12.6671 152.619 12.6687 152.702 12.6687C152.864 12.679 153.024 12.7116 153.177 12.7657C153.288 12.8033 153.391 12.8579 153.484 12.9273C153.581 13.0024 153.654 13.1013 153.697 13.2134C153.72 13.2757 153.734 13.3411 153.737 13.4073C153.743 13.4864 153.737 13.5659 153.719 13.6433C153.684 13.79 153.598 13.921 153.476 14.0151C153.406 14.0699 153.328 14.1156 153.246 14.1508L153.217 14.1718ZM152.055 13.9908H152.53C152.589 13.9908 152.65 13.9908 152.709 13.9908C152.787 13.985 152.865 13.9725 152.942 13.9536C153.012 13.9358 153.079 13.9069 153.139 13.868C153.224 13.8114 153.285 13.7268 153.308 13.6304C153.324 13.5669 153.328 13.5014 153.322 13.4364C153.317 13.3878 153.304 13.3402 153.283 13.2958C153.246 13.2222 153.188 13.1609 153.114 13.1196C153.061 13.0894 153.004 13.0661 152.945 13.0501C152.841 13.0207 152.733 13.0038 152.624 13C152.562 13 152.498 13 152.435 13C152.373 13 152.332 13 152.281 13C152.231 13 152.148 13 152.08 13.0113C152.069 13.009 152.058 13.009 152.047 13.0113C152.053 13.034 152.052 13.9633 152.055 13.9908Z" fill="#0033CC"/>
</svg>
