<svg width="80" height="80" viewBox="0 0 80 80" fill="none" xmlns="http://www.w3.org/2000/svg">
<path d="M62.1166 11.4096L57.6968 9.359C54.5843 7.91493 51.0957 7.76946 47.8738 8.94931C44.6518 10.129 42.0822 12.4929 40.6382 15.6054L39.5208 18.014L38.4033 15.6054C35.4224 9.18009 27.7697 6.37822 21.3447 9.359L16.925 11.4096C16.1482 11.7701 15.558 12.4115 15.2636 13.2157C14.9691 14.0199 15.0055 14.8907 15.3658 15.6676L17.4163 20.0874C19.5878 24.7682 24.2388 27.526 29.0883 27.526C30.8955 27.526 32.7305 27.1431 34.4749 26.3338L37.8021 24.7902V32.582C25.5108 33.4657 15.7803 43.7473 15.7803 56.2598C15.7803 69.3504 26.4303 80.0002 39.5208 80.0002C52.6113 80.0002 63.2613 69.3502 63.2613 56.2598C63.2613 55.8229 63.2493 55.381 63.2255 54.947L59.7932 55.1345C59.8135 55.5065 59.8238 55.8851 59.8238 56.2598C59.8238 67.4549 50.7158 76.5627 39.5208 76.5627C28.3258 76.5627 19.2178 67.4548 19.2178 56.2598C19.2178 45.0648 28.3258 35.9568 39.5208 35.9568C44.0913 35.9568 48.4068 37.4393 52.0007 40.244L54.1155 37.534C50.3653 34.6074 45.9441 32.9127 41.2396 32.5809V24.7902L44.5666 26.3338C46.3114 27.1432 48.1455 27.526 49.9532 27.526C54.8022 27.526 59.4538 24.7677 61.6252 20.0874L63.6757 15.6677C64.0363 14.8909 64.0725 14.0201 63.778 13.2157C63.4835 12.4115 62.8935 11.7701 62.1166 11.4096ZM33.0282 23.2156C28.3222 25.3985 22.7177 23.3463 20.5346 18.6407L18.5814 14.4306L22.7914 12.4773C27.4974 10.2937 33.1018 12.3463 35.285 17.0521L37.2383 21.2623L33.0282 23.2156ZM58.5069 18.6407C56.3238 23.3463 50.7194 25.399 46.0133 23.2156L41.8033 21.2623L43.7564 17.0521C45.9397 12.3463 51.5444 10.2942 56.25 12.4773L60.4602 14.4306L58.5069 18.6407Z" fill="#080808"/>
<path d="M74.1078 65.6541H73.2154V64.7617C73.2154 63.8125 72.4459 63.043 71.4967 63.043C70.5475 63.043 69.7779 63.8125 69.7779 64.7617V65.6541H68.8857C67.9365 65.6541 67.167 66.4236 67.167 67.3728C67.167 68.322 67.9365 69.0916 68.8857 69.0916H69.7779V69.9839C69.7779 70.9331 70.5475 71.7027 71.4967 71.7027C72.4459 71.7027 73.2154 70.9331 73.2154 69.9839V69.0916H74.1078C75.057 69.0916 75.8265 68.322 75.8265 67.3728C75.8265 66.4236 75.057 65.6541 74.1078 65.6541Z" fill="#080808"/>
<path d="M39.4106 69.1145C40.3598 69.1145 41.1293 68.345 41.1293 67.3957V66.3539C43.7701 65.6401 45.4621 63.3664 45.8393 61.1229C46.3315 58.1953 44.7426 55.5495 41.8854 54.5396L41.7843 54.5039C40.0237 53.8818 38.3609 53.2942 37.8778 52.55C37.5307 52.0153 37.4523 51.3878 37.6568 50.7831C37.8773 50.1315 38.3921 49.6192 39.0695 49.3775C40.2645 48.9515 42.2331 49.7537 42.8287 50.0684C43.6643 50.5137 44.7032 50.199 45.1514 49.3642C45.6001 48.5278 45.2859 47.4859 44.4495 47.037C44.2181 46.9129 42.8306 46.1972 41.1293 45.9259V45.124C41.1293 44.1748 40.3598 43.4053 39.4106 43.4053C38.4614 43.4053 37.6918 44.1748 37.6918 45.124V46.2264C36.1279 46.8556 34.9348 48.1023 34.4006 49.6815C33.8599 51.2797 34.0764 53.0073 34.9945 54.4215C36.1139 56.1459 38.2109 56.8868 40.639 57.745L40.7398 57.7806C42.5934 58.4357 42.5529 59.9378 42.4493 60.5531C42.2407 61.7936 41.1973 63.1342 39.399 63.1462C37.6078 63.1573 37.0664 63.1618 35.8648 62.2586C35.106 61.6882 34.0285 61.8409 33.4582 62.5998C32.8879 63.3586 33.0406 64.4361 33.7995 65.0064C35.2806 66.1196 36.4406 66.4531 37.692 66.5489V67.3959C37.6918 68.345 38.4614 69.1145 39.4106 69.1145Z" fill="#080808"/>
<path d="M67.5105 6.94094C67.5105 7.89016 68.28 8.65969 69.2293 8.65969C70.1785 8.65969 70.948 7.89016 70.948 6.94094V6.04859H71.8404C72.7896 6.04859 73.5591 5.27906 73.5591 4.32984C73.5591 3.38063 72.7896 2.61109 71.8404 2.61109H70.948V1.71875C70.948 0.769531 70.1785 0 69.2293 0C68.28 0 67.5105 0.769531 67.5105 1.71875V2.61109H66.6182C65.6689 2.61109 64.8994 3.38063 64.8994 4.32984C64.8994 5.27906 65.6689 6.04859 66.6182 6.04859H67.5105V6.94094Z" fill="#080808"/>
<path d="M10.1353 39.0447H9.24293V38.1523C9.24293 37.2031 8.4734 36.4336 7.52418 36.4336C6.57496 36.4336 5.80543 37.2031 5.80543 38.1523V39.0447H4.91309C3.96387 39.0447 3.19434 39.8142 3.19434 40.7634C3.19434 41.7127 3.96387 42.4822 4.91309 42.4822H5.80543V43.3744C5.80543 44.3236 6.57496 45.0931 7.52418 45.0931C8.4734 45.0931 9.24293 44.3236 9.24293 43.3744V42.4822H10.1353C11.0845 42.4822 11.854 41.7127 11.854 40.7634C11.854 39.8142 11.0845 39.0447 10.1353 39.0447Z" fill="#080808"/>
<path d="M63.8323 30.3838C56.6791 30.3838 50.8594 36.2035 50.8594 43.3568C50.8594 50.51 56.6791 56.3297 63.8323 56.3297C70.9856 56.3297 76.8053 50.51 76.8053 43.3568C76.8053 36.2035 70.9856 30.3838 63.8323 30.3838ZM63.8323 52.8924C58.5745 52.8924 54.2969 48.6147 54.2969 43.3569C54.2969 38.0991 58.5744 33.8214 63.8323 33.8214C69.0903 33.8214 73.3678 38.0991 73.3678 43.3569C73.3678 48.6147 69.0902 52.8924 63.8323 52.8924Z" fill="#1639CE"/>
<path d="M66.4259 41.6377H65.5508V40.7627C65.5508 39.8135 64.7813 39.0439 63.832 39.0439C62.8828 39.0439 62.1133 39.8135 62.1133 40.7627V41.6377H61.2383C60.2891 41.6377 59.5195 42.4072 59.5195 43.3564C59.5195 44.3057 60.2891 45.0752 61.2383 45.0752H62.1133V45.9502C62.1133 46.8994 62.8828 47.6689 63.832 47.6689C64.7813 47.6689 65.5508 46.8994 65.5508 45.9502V45.0752H66.4259C67.3752 45.0752 68.1447 44.3057 68.1447 43.3564C68.1447 42.4072 67.3752 41.6377 66.4259 41.6377Z" fill="#1639CE"/>
</svg>
