<svg width="28" height="24" viewBox="0 0 28 24" fill="none" xmlns="http://www.w3.org/2000/svg">
<path fill-rule="evenodd" clip-rule="evenodd" d="M5.42289 0C2.79628 0 0.666992 2.12929 0.666992 4.75589V18.6667C0.666992 21.6122 3.05481 24 6.00033 24H22.0003C24.9458 24 27.3337 21.6122 27.3337 18.6667V9.6C27.3337 6.65528 24.9485 4.26667 22.0021 4.26667H14.533C14.5103 4.25648 14.4826 4.24355 14.4515 4.22768C14.387 4.19485 14.3243 4.15884 14.2746 4.12742C14.2519 4.11306 14.2356 4.10204 14.2258 4.09509C14.0401 3.92901 13.769 3.64401 13.3932 3.24305L13.32 3.16484C12.9716 2.79293 12.565 2.35878 12.1467 1.94713C11.703 1.51049 11.2061 1.05874 10.705 0.708776C10.2528 0.392965 9.57838 0 8.81947 0H5.42289ZM11.4474 5.06646C11.8007 5.44344 12.1742 5.84153 12.4775 6.10883C12.693 6.29879 13.0002 6.48112 13.241 6.6038C13.3751 6.67208 13.5309 6.74363 13.692 6.80138C13.821 6.84764 14.0811 6.93333 14.3799 6.93333H22.0021C23.4741 6.93333 24.667 8.12645 24.667 9.6V18.6667C24.667 20.1394 23.4731 21.3333 22.0003 21.3333H6.00033C4.52757 21.3333 3.33366 20.1394 3.33366 18.6667V4.75589C3.33366 3.60205 4.26904 2.66667 5.42289 2.66667H8.7791C8.78029 2.66757 8.78432 2.66921 8.79131 2.67205C8.82903 2.68738 8.95277 2.73768 9.17809 2.89504C9.49754 3.11815 9.87046 3.44847 10.2762 3.8478C10.6542 4.21978 11.026 4.61667 11.3813 4.99593L11.4474 5.06646Z" fill="#8627FF"/>
</svg>
