<svg width="80" height="80" viewBox="0 0 80 80" fill="none" xmlns="http://www.w3.org/2000/svg">
<g clip-path="url(#clip0_1231_22420)">
<path d="M75.1035 2.17188H4.8963C2.19699 2.17188 0.000784821 4.36808 0.000784821 7.0674C-0.00468381 13.8154 0.00469099 55.0334 0.000784821 60.7228C0.000784821 63.4221 2.19699 65.6183 4.8963 65.6183H31.3892V74.3906H30.0389C27.7644 74.4786 27.7546 77.7357 30.0389 77.8281H49.961C52.2353 77.7402 52.2453 74.483 49.961 74.3906H48.6107V65.6183H75.1037C77.803 65.6183 79.9992 63.4221 79.9992 60.7228V51.5003V7.0674C79.9991 4.36808 77.803 2.17188 75.1035 2.17188ZM3.43821 7.0674C3.43821 6.26335 4.09226 5.6093 4.8963 5.6093H75.1035C75.9076 5.6093 76.5616 6.26351 76.5616 7.0674V49.7816H3.43821V7.0674ZM45.1733 74.3905H34.8268V65.6182H45.1733V74.3905ZM76.5616 60.7228C76.5616 61.5269 75.9076 62.1809 75.1035 62.1809C65.838 62.1809 42.035 62.1809 33.1079 62.1809H4.8963C4.09226 62.1809 3.43821 61.5269 3.43821 60.7228V53.2191H76.5616V60.7228Z" fill="#080808"/>
<path d="M61.8579 17.1884H20.4638C19.5146 17.1884 18.7451 16.4189 18.7451 15.4697C18.7451 14.5205 19.5146 13.751 20.4638 13.751H61.8579C64.1263 13.8372 64.1493 17.0915 61.8579 17.1884Z" fill="#1639CE"/>
<path d="M61.8578 41.6406H46.3535C45.4043 41.6406 44.6348 40.871 44.6348 39.9218C44.6348 38.9726 45.4043 38.2031 46.3535 38.2031H61.8578C64.1334 38.2916 64.1409 41.5487 61.8578 41.6406Z" fill="#1639CE"/>
<path d="M61.8578 30.1454H46.3535C45.4043 30.1454 44.6348 29.3759 44.6348 28.4267C44.6348 27.4775 45.4043 26.708 46.3535 26.708H61.8578C64.1334 26.7966 64.1409 30.0537 61.8578 30.1454Z" fill="#080808"/>
<path d="M36.823 41.6405H20.4638C19.5146 41.6405 18.7451 40.871 18.7451 39.9218V28.4267C18.7451 27.4775 19.5146 26.708 20.4638 26.708H36.823C37.7722 26.708 38.5417 27.4775 38.5417 28.4267V39.9218C38.5417 40.871 37.7724 41.6405 36.823 41.6405ZM22.1825 38.2031H35.1043V30.1454H22.1825V38.2031Z" fill="#1639CE"/>
</g>
<defs>
<clipPath id="clip0_1231_22420">
<rect width="80" height="80" fill="white"/>
</clipPath>
</defs>
</svg>
