<svg width="310" height="269" viewBox="0 0 310 269" fill="none" xmlns="http://www.w3.org/2000/svg">
<g opacity="0.25">
<path d="M186.866 264.244C156.737 273.034 124.686 269.344 96.9096 253.891C69.1335 238.437 47.6062 212.316 36.4904 180.58L2.22315 190.578L0 181.534L143.674 139.632C159.223 138.935 174.527 144.026 187.065 154.064C199.604 164.103 208.63 178.491 212.657 194.861C208.635 178.496 209.846 161.127 216.091 145.611C222.336 130.095 233.244 117.355 247.021 109.485L277.012 100.732C277.664 103.794 278.231 106.866 278.68 109.928C283.618 143.462 276.965 177.799 260.007 206.301C243.049 234.804 216.989 255.449 186.866 264.244Z" fill="#2B4BD2"/>
<path d="M310 87.9279L248.68 105.818C232.738 107.169 216.863 102.402 203.809 92.3448C190.755 82.2872 181.343 67.5725 177.207 50.7513C181.341 67.5696 179.946 85.4328 173.263 101.249C166.58 117.066 155.029 129.84 140.609 137.361L32.9875 168.788C32.332 165.684 31.7761 162.615 31.3201 159.581C26.3682 126.042 33.0145 91.6946 49.9731 63.1834C66.9317 34.6721 92.9975 14.0229 123.129 5.23011C153.26 -3.56265 185.314 0.125873 213.092 15.5822C240.87 31.0386 262.398 57.1643 273.51 88.9057L307.777 78.9073L310 87.9279Z" fill="#2B4BD2"/>
</g>
</svg>
