<svg width="80" height="80" viewBox="0 0 80 80" fill="none" xmlns="http://www.w3.org/2000/svg">
<g clip-path="url(#clip0_1231_22447)">
<path d="M63.0586 62.5777L57.5347 68.1016L55.3803 65.9473C54.7092 65.2761 53.6209 65.2763 52.9497 65.9473C52.2784 66.6184 52.2786 67.7067 52.9497 68.378L56.3192 71.7475C56.6547 72.0831 57.0947 72.2509 57.5345 72.2509C57.9744 72.2509 58.4142 72.0831 58.7498 71.7475L65.489 65.0084C66.1601 64.3372 66.1601 63.2489 65.489 62.5777C64.8179 61.9064 63.7298 61.9064 63.0586 62.5777Z" fill="#1639CE"/>
<path d="M70.4686 54.6204V49.5342C70.4686 43.4171 65.492 38.4404 59.3748 38.4404H59.0636C52.9466 38.4404 47.9698 43.4171 47.9698 49.5342V54.6204C46.1178 55.3014 44.793 57.0831 44.793 59.1686V75.1567C44.793 77.8275 46.9659 80.0004 49.6367 80.0004H68.8016C71.4723 80.0004 73.6453 77.8275 73.6453 75.1567V59.1686C73.6455 57.0832 72.3206 55.3014 70.4686 54.6204ZM51.4073 49.5343C51.4073 45.3126 54.8419 41.8781 59.0636 41.8781H59.3748C63.5966 41.8781 67.0311 45.3126 67.0311 49.5343V54.325H51.4073V49.5343ZM70.208 75.1567C70.208 75.932 69.577 76.5629 68.8017 76.5629H49.6369C48.8616 76.5629 48.2306 75.932 48.2306 75.1567V59.1686C48.2306 58.3932 48.8616 57.7623 49.6369 57.7623H49.6888H68.75H68.8019C69.5772 57.7623 70.2081 58.3932 70.2081 59.1686V75.1567H70.208Z" fill="#1639CE"/>
<path d="M11.249 38.1221C10.2998 38.1221 9.53027 38.8916 9.53027 39.8408V49.3714C9.53027 50.3207 10.2998 51.0902 11.249 51.0902H30.6278C31.577 51.0902 32.3465 50.3207 32.3465 49.3714V39.8408C32.3465 38.8916 31.577 38.1221 30.6278 38.1221H11.249ZM28.9092 47.6527H12.9678V41.5596H28.909L28.9092 47.6527Z" fill="#080808"/>
<path d="M80 25.6231V6.40625C80 2.87391 77.1261 0 73.5938 0H6.40625C2.87391 0 0 2.87391 0 6.40625V25.6231C0 27.4839 0.798125 29.1614 2.06938 30.333C0.7975 31.5175 0 33.2048 0 35.0758V54.137C0 57.7123 2.90875 60.6211 6.48406 60.6211H44.7939V59.1681C44.7939 58.4608 44.9494 57.79 45.2231 57.1836H6.48406C4.80422 57.1836 3.4375 55.8169 3.4375 54.137V35.0758C3.4375 33.3959 4.80422 32.0292 6.48406 32.0292H73.5159C75.1958 32.0292 76.5625 33.3959 76.5625 35.0758V54.137C76.5625 55.8169 75.1958 57.1836 73.5159 57.1836H73.217C73.4908 57.79 73.6462 58.4608 73.6462 59.1681V60.6178C77.1614 60.548 80 57.6687 80 54.137V35.0758C80 33.2048 79.2025 31.5173 77.9306 30.3328C79.2019 29.1614 80 27.4839 80 25.6231ZM6.48406 28.5919H6.40625C4.76922 28.5919 3.4375 27.2602 3.4375 25.6231V6.40625C3.4375 4.76922 4.76922 3.4375 6.40625 3.4375H73.5938C75.2308 3.4375 76.5625 4.76922 76.5625 6.40625V25.6231C76.5625 27.2602 75.2308 28.5919 73.5938 28.5919H73.5159H6.48406Z" fill="#080808"/>
<path d="M30.6279 9.53027H11.249C10.2998 9.53027 9.53027 10.2998 9.53027 11.249V20.7796C9.53027 21.7289 10.2998 22.4984 11.249 22.4984H30.6278C31.577 22.4984 32.3465 21.7289 32.3465 20.7796V11.249C32.3467 10.2998 31.5771 9.53027 30.6279 9.53027ZM28.9092 19.0609H12.9678V12.9678H28.909L28.9092 19.0609Z" fill="#080808"/>
<path d="M59.2204 14.2959H54.4551C53.5059 14.2959 52.7363 15.0654 52.7363 16.0146C52.7363 16.9639 53.5059 17.7334 54.4551 17.7334H59.2204C60.1696 17.7334 60.9391 16.9639 60.9391 16.0146C60.9391 15.0654 60.1696 14.2959 59.2204 14.2959Z" fill="#080808"/>
<path d="M44.9245 14.2959H40.1592C39.21 14.2959 38.4404 15.0654 38.4404 16.0146C38.4404 16.9639 39.21 17.7334 40.1592 17.7334H44.9245C45.8737 17.7334 46.6432 16.9639 46.6432 16.0146C46.6432 15.0654 45.8737 14.2959 44.9245 14.2959Z" fill="#080808"/>
<path d="M40.1592 42.8877C39.21 42.8877 38.4404 43.6572 38.4404 44.6064C38.4404 45.5557 39.21 46.3252 40.1592 46.3252H43.3361C44.2853 46.3252 45.0548 45.5557 45.0548 44.6064C45.0548 43.6572 44.2853 42.8877 43.3361 42.8877H40.1592Z" fill="#080808"/>
<path d="M68.751 9.53027C67.8018 9.53027 67.0322 10.2998 67.0322 11.249V20.7796C67.0322 21.7289 67.8018 22.4984 68.751 22.4984C69.7002 22.4984 70.4697 21.7289 70.4697 20.7796V11.249C70.4697 10.2998 69.7002 9.53027 68.751 9.53027Z" fill="#080808"/>
</g>
<defs>
<clipPath id="clip0_1231_22447">
<rect width="80" height="80" fill="white"/>
</clipPath>
</defs>
</svg>
