<svg width="156" height="37" viewBox="0 0 156 37" fill="none" xmlns="http://www.w3.org/2000/svg">
<path d="M27.2976 35.8728C22.8964 37.0518 18.2142 36.5569 14.1567 34.4839C10.0991 32.4108 6.95438 28.9068 5.33056 24.6496L0.324761 25.9908L0 24.7776L20.9881 19.1566C23.2596 19.0632 25.4951 19.746 27.3268 21.0926C29.1584 22.4393 30.4769 24.3694 31.0653 26.5654C30.4777 24.3701 30.6545 22.0402 31.5669 19.9587C32.4792 17.8773 34.0726 16.1683 36.0851 15.1126L40.4663 13.9385C40.5616 14.3491 40.6443 14.7613 40.7099 15.172C41.4313 19.6704 40.4594 24.2765 37.9821 28.1C35.5049 31.9235 31.6981 34.6929 27.2976 35.8728Z" fill="white"/>
<path d="M45.2847 12.2209L36.3271 14.6208C33.9981 14.802 31.6792 14.1626 29.7722 12.8134C27.8652 11.4643 26.4904 9.49035 25.8861 7.23388C26.4901 9.48997 26.2863 11.8862 25.31 14.0079C24.3337 16.1296 22.6463 17.8432 20.5399 18.8521L4.81839 23.0679C4.72263 22.6515 4.64142 22.2398 4.57481 21.8328C3.85143 17.3337 4.82232 12.7262 7.29966 8.90157C9.777 5.07693 13.5847 2.30695 17.9863 1.12745C22.3879 -0.0520576 27.0705 0.442739 31.1283 2.51613C35.1862 4.58951 38.3309 8.09415 39.9542 12.3521L44.96 11.0109L45.2847 12.2209Z" fill="white"/>
<path d="M61.8453 13.8838C66.7083 13.8838 68.8889 15.3546 68.8889 18.8313H65.9617C65.9617 17.0129 64.3401 16.4779 61.2946 16.4779C58.6393 16.4779 58.1359 17.1729 58.1359 17.8405C58.1359 18.5904 59.3183 19.1335 62.4398 19.6604C66.4093 20.3279 69.0646 20.7288 69.0646 23.9662C69.0646 26.9079 66.8282 28.057 62.6088 28.057C57.5414 28.057 55.2847 26.5862 55.2847 23.1096H58.2204C58.2204 24.8487 60.1477 25.437 63.0277 25.437C65.3755 25.437 66.2691 24.8746 66.2691 24.0454C66.2691 22.8429 64.705 22.7896 61.7692 22.3079C58.7288 21.8521 55.3404 21.0779 55.3404 17.8954C55.332 15.0604 57.5414 13.8838 61.8453 13.8838Z" fill="white"/>
<path d="M77.804 16.4782C76.2112 16.4782 74.1707 16.6398 74.1707 18.9026H71.235C71.235 15.2935 73.7518 13.876 77.804 13.876C82.4711 13.876 84.7633 15.2935 84.7633 19.5718V27.6532H81.5539V25.8382C80.9948 27.149 79.6807 28.0573 76.6065 28.0573C73.0846 28.0573 70.458 27.1748 70.458 23.855C70.458 21.1816 72.6657 20.0583 76.6065 19.6526L81.5539 19.1677V19.1144C81.5489 16.6899 79.3412 16.4782 77.804 16.4782ZM77.0777 21.8265C75.2602 22.014 73.8075 22.4957 73.8075 23.8049C73.8075 24.8215 74.6521 25.4373 77.049 25.4373C80.179 25.4373 81.4087 24.1524 81.5489 23.1632V21.3982L77.0777 21.8265Z" fill="white"/>
<path d="M89.7938 17.092H86.4409V14.2845H89.7938L90.912 8.93457H93.0083L92.9812 14.2845H99.9962V17.092H93.0083V22.4953C93.0083 23.8853 93.2599 25.1686 94.9643 25.1686C96.2227 25.1686 97.1737 24.5803 97.1737 22.5825H100.108C100.108 26.7283 98.123 28.065 94.8528 28.065C91.5556 28.065 89.7854 26.5683 89.7854 22.9042L89.7938 17.092Z" fill="white"/>
<path d="M105.082 14.2845V21.4786C105.082 23.7253 105.808 25.1686 108.798 25.1686C111.453 25.1686 112.852 23.7252 112.852 20.9662V14.2812H116.061V27.6528H112.852V25.7812C111.903 27.2245 110.337 28.0537 107.904 28.0537C103.85 28.0537 101.867 26.2887 101.867 21.7162V14.2812L105.082 14.2845Z" fill="white"/>
<path d="M118.86 27.6562V14.2846H122.069V16.1288C122.936 14.7113 124.362 13.8838 126.292 13.8838C129.671 13.8838 131.491 15.7813 131.491 19.6863H128.556C128.556 17.9488 127.662 16.7446 125.593 16.7446C123.385 16.7446 122.071 18.1896 122.071 20.947V27.6594L118.86 27.6562Z" fill="white"/>
<path d="M144.434 27.6559V20.4618C144.434 18.1893 143.707 16.7443 140.718 16.7443C138.062 16.7443 136.664 18.1893 136.664 20.9467V27.6592H133.454V14.2876H136.664V16.1592C137.588 14.7143 139.181 13.8867 141.611 13.8867C145.665 13.8867 147.648 15.6517 147.648 20.1983V27.6592L144.434 27.6559Z" fill="white"/>
<path d="M155.285 14.6077C155.284 15.117 155.126 15.6148 154.83 16.038C154.534 16.4613 154.114 16.7908 153.622 16.985C153.13 17.1791 152.588 17.2291 152.067 17.1286C151.545 17.028 151.066 16.7815 150.691 16.4202C150.316 16.059 150.061 15.5993 149.959 15.0994C149.857 14.5995 149.913 14.082 150.119 13.6124C150.325 13.1428 150.672 12.7423 151.116 12.4617C151.561 12.1811 152.082 12.033 152.614 12.0362C153.324 12.0396 154.004 12.3121 154.504 12.7941C155.005 13.2761 155.285 13.9282 155.285 14.6077ZM150.354 14.6077C150.354 15.0325 150.486 15.4479 150.732 15.8011C150.979 16.1543 151.33 16.4297 151.74 16.5922C152.15 16.7548 152.601 16.7974 153.037 16.7145C153.472 16.6316 153.872 16.427 154.186 16.1266C154.5 15.8262 154.714 15.4434 154.8 15.0268C154.887 14.6101 154.843 14.1782 154.673 13.7857C154.503 13.3932 154.215 13.0577 153.846 12.8217C153.477 12.5856 153.043 12.4597 152.599 12.4597C152.004 12.4601 151.433 12.6865 151.012 13.0893C150.591 13.492 150.354 14.0381 150.354 14.6077Z" fill="white"/>
<path d="M153.217 14.6738L153.231 14.6835C153.366 14.77 153.478 14.8871 153.555 15.0245C153.605 15.113 153.646 15.2062 153.677 15.3025C153.715 15.4205 153.746 15.5417 153.773 15.6614C153.8 15.781 153.82 15.8941 153.84 16.0105C153.84 16.0202 153.84 16.0299 153.84 16.0396H153.825H153.418L153.408 15.9733C153.382 15.8002 153.341 15.6294 153.286 15.4625C153.254 15.3641 153.211 15.2689 153.16 15.1781C153.123 15.1113 153.078 15.0493 153.025 14.9938C152.966 14.9323 152.896 14.8828 152.817 14.8484C152.745 14.8181 152.667 14.8027 152.589 14.8031H152.052C152.052 14.8031 152.052 14.8128 152.052 14.8176V16.0428H151.631C151.631 16.0428 151.631 16.0331 151.631 16.0282V13.245H151.653L151.927 13.2078C152.003 13.1981 152.08 13.19 152.158 13.1836C152.236 13.1771 152.352 13.1723 152.45 13.1706C152.548 13.169 152.619 13.1706 152.702 13.1706C152.864 13.1809 153.024 13.2136 153.177 13.2676C153.288 13.3053 153.391 13.3599 153.484 13.4293C153.581 13.5044 153.654 13.6033 153.697 13.7153C153.72 13.7777 153.734 13.8431 153.737 13.9093C153.743 13.9884 153.737 14.0679 153.719 14.1453C153.684 14.2919 153.598 14.4229 153.476 14.517C153.406 14.5719 153.328 14.6175 153.246 14.6528L153.217 14.6738ZM152.055 14.4928H152.53C152.589 14.4928 152.65 14.4928 152.709 14.4928C152.787 14.4869 152.865 14.4745 152.942 14.4556C153.012 14.4378 153.079 14.4088 153.139 14.3699C153.224 14.3133 153.285 14.2287 153.308 14.1323C153.324 14.0688 153.328 14.0033 153.322 13.9384C153.317 13.8897 153.304 13.8422 153.283 13.7978C153.246 13.7242 153.188 13.6628 153.114 13.6216C153.061 13.5914 153.004 13.568 152.945 13.5521C152.841 13.5226 152.733 13.5058 152.624 13.502C152.562 13.502 152.498 13.502 152.435 13.502C152.373 13.502 152.332 13.502 152.281 13.502C152.231 13.502 152.148 13.502 152.08 13.5133C152.069 13.5109 152.058 13.5109 152.047 13.5133C152.053 13.5359 152.052 14.4653 152.055 14.4928Z" fill="white"/>
</svg>
