<svg width="1280" height="155" viewBox="0 0 1280 155" fill="none" xmlns="http://www.w3.org/2000/svg">
<path d="M84.2417 63.4062C146.474 63.4062 174.381 82.2286 174.381 126.72H136.92C136.92 103.45 116.169 96.604 77.1948 96.604C43.2143 96.604 36.7727 105.498 36.7727 114.041C36.7727 123.638 51.904 130.588 91.8506 137.331C142.648 145.873 176.629 151.003 176.629 192.433C176.629 230.078 148.009 244.784 94.0122 244.784C29.1639 244.784 0.284668 225.961 0.284668 181.47H37.8535C37.8535 203.726 62.5175 211.255 99.3729 211.255C129.419 211.255 140.854 204.057 140.854 193.446C140.854 178.057 120.838 177.375 83.2689 171.211C44.3599 165.378 0.998036 155.47 0.998036 114.744C0.889956 78.4641 29.1638 63.4062 84.2417 63.4062Z" fill="white"/>
<path d="M288.47 96.6078C268.086 96.6078 241.974 98.676 241.974 127.634H204.405C204.405 81.4463 236.613 63.3066 288.47 63.3066C348.195 63.3066 377.528 81.4463 377.528 136.197V239.617H336.458V216.389C329.303 233.163 312.485 244.788 273.144 244.788C228.075 244.788 194.461 233.494 194.461 191.009C194.461 156.798 222.714 142.423 273.144 137.231L336.458 131.026V130.343C336.393 99.3174 308.14 96.6078 288.47 96.6078ZM279.175 165.051C255.916 167.45 237.326 173.614 237.326 190.368C237.326 203.378 248.134 211.259 278.807 211.259C318.862 211.259 334.599 194.815 336.393 182.157V159.57L279.175 165.051Z" fill="white"/>
<path d="M441.903 104.462H398.995V68.5342H441.903L456.213 0.0703125H483.039L482.693 68.5342H572.464V104.462H483.039V173.609C483.039 191.397 486.259 207.82 508.07 207.82C524.174 207.82 536.344 200.291 536.344 174.726H573.891C573.891 227.78 548.492 244.886 506.643 244.886C464.449 244.886 441.795 225.732 441.795 178.842L441.903 104.462Z" fill="white"/>
<path d="M637.549 68.5336V160.598C637.549 189.349 646.844 207.819 685.104 207.819C719.085 207.819 736.983 189.349 736.983 154.041V68.4922H778.053V239.611H736.983V215.659C724.835 234.129 704.797 244.74 673.67 244.74C621.791 244.74 596.413 222.153 596.413 163.638V68.4922L637.549 68.5336Z" fill="white"/>
<path d="M813.871 239.654V68.5358H854.941V92.1363C866.03 73.9965 884.274 63.4062 908.981 63.4062C952.214 63.4062 975.516 87.6893 975.516 137.662H937.947C937.947 115.426 926.512 100.017 900.032 100.017C871.78 100.017 854.963 118.508 854.963 153.795V239.696L813.871 239.654Z" fill="white"/>
<path d="M1141.14 239.65V147.586C1141.14 118.504 1131.84 100.013 1093.58 100.013C1059.6 100.013 1041.7 118.504 1041.7 153.791V239.691H1000.63V68.5731H1041.7V92.525C1053.53 74.0335 1073.91 63.4434 1105.02 63.4434C1156.9 63.4434 1182.27 86.0302 1182.27 144.214V239.691L1141.14 239.65Z" fill="white"/>
<path d="M1280 72.6705C1280 79.1879 1277.98 85.5585 1274.19 90.9746C1270.4 96.3907 1265.02 100.608 1258.72 103.093C1252.42 105.578 1245.5 106.217 1238.82 104.93C1232.14 103.644 1226.01 100.489 1221.21 95.866C1216.41 91.2429 1213.15 85.3599 1211.85 78.9628C1210.55 72.5657 1211.26 65.9426 1213.9 59.9331C1216.53 53.9237 1220.98 48.7986 1226.66 45.2076C1232.34 41.6166 1239.01 39.7214 1245.82 39.7624C1254.91 39.8061 1263.61 43.2938 1270.02 49.4618C1276.42 55.6297 1280.01 63.9751 1280 72.6705ZM1216.9 72.6705C1216.9 78.1073 1218.59 83.422 1221.74 87.9426C1224.9 92.4631 1229.39 95.9865 1234.64 98.067C1239.89 100.148 1245.66 100.692 1251.23 99.6313C1256.81 98.5707 1261.93 95.9526 1265.94 92.1082C1269.96 88.2637 1272.7 83.3657 1273.81 78.0334C1274.91 72.701 1274.35 67.1738 1272.17 62.1509C1270 57.1279 1266.31 52.8348 1261.59 49.8142C1256.87 46.7937 1251.31 45.1816 1245.63 45.1816C1238.01 45.187 1230.71 48.0849 1225.32 53.2389C1219.94 58.3929 1216.91 65.3816 1216.9 72.6705Z" fill="white"/>
<path d="M1253.54 73.5149L1253.72 73.639C1255.45 74.7464 1256.88 76.2451 1257.87 78.0033C1258.51 79.1357 1259.03 80.3277 1259.42 81.5609C1259.92 83.0708 1260.31 84.6222 1260.65 86.1528C1261 87.6834 1261.26 89.1312 1261.52 90.6204C1261.52 90.7446 1261.52 90.8686 1261.52 90.9927H1261.32H1256.11L1255.99 90.1448C1255.65 87.9295 1255.13 85.7436 1254.43 83.6086C1254.01 82.3488 1253.47 81.13 1252.81 79.9683C1252.34 79.1132 1251.76 78.3204 1251.08 77.6103C1250.33 76.8226 1249.43 76.189 1248.42 75.7487C1247.5 75.3612 1246.51 75.1639 1245.5 75.1696H1238.63C1238.63 75.1696 1238.63 75.2936 1238.63 75.3557V91.0342H1233.25C1233.25 91.0342 1233.25 90.91 1233.25 90.8479V55.2302H1233.53L1237.03 54.7545C1238 54.6304 1238.99 54.527 1239.99 54.4442C1240.98 54.3615 1242.48 54.2994 1243.73 54.2787C1244.98 54.258 1245.89 54.2787 1246.95 54.2787C1249.03 54.4105 1251.07 54.8285 1253.02 55.5198C1254.44 56.0018 1255.77 56.7003 1256.96 57.5882C1258.2 58.5499 1259.14 59.8152 1259.68 61.2492C1259.98 62.0473 1260.16 62.8839 1260.2 63.7313C1260.27 64.7436 1260.19 65.7607 1259.96 66.7512C1259.52 68.6278 1258.42 70.3046 1256.85 71.5085C1255.96 72.2105 1254.97 72.7949 1253.91 73.246L1253.54 73.5149ZM1238.67 71.1982H1244.74C1245.5 71.1982 1246.28 71.1982 1247.04 71.1982C1248.04 71.1233 1249.04 70.9641 1250.02 70.7225C1250.92 70.4944 1251.77 70.124 1252.55 69.6263C1253.64 68.9019 1254.4 67.8192 1254.71 66.5857C1254.91 65.7727 1254.97 64.9345 1254.88 64.1036C1254.82 63.4812 1254.66 62.8727 1254.39 62.3041C1253.92 61.3626 1253.16 60.5773 1252.22 60.0496C1251.55 59.6632 1250.82 59.3641 1250.06 59.1602C1248.73 58.7829 1247.35 58.5675 1245.96 58.519C1245.16 58.519 1244.33 58.519 1243.53 58.519C1242.73 58.519 1242.22 58.519 1241.57 58.519C1240.92 58.519 1239.86 58.5189 1238.99 58.6637C1238.85 58.6334 1238.7 58.6334 1238.56 58.6637C1238.65 58.9533 1238.63 70.8466 1238.67 71.1982Z" fill="white"/>
</svg>
